<svg id="svg" version="1.1" xmlns="http://www.w3.org/2000/svg" xmlns:xlink="http://www.w3.org/1999/xlink" width="400" height="400" viewBox="0, 0, 400,400"><g id="svgg"><path id="path0" d="M197.656 77.495 C 196.689 77.764,188.691 82.295,179.883 87.563 C 171.074 92.831,156.924 101.282,148.438 106.343 C 130.668 116.941,130.073 117.434,130.080 121.569 C 130.088 125.918,131.487 127.387,141.113 133.157 C 145.142 135.571,148.438 137.616,148.438 137.703 C 148.438 137.789,145.256 139.756,141.368 142.074 C 131.251 148.106,130.078 149.281,130.078 153.380 C 130.078 157.673,131.189 158.802,141.161 164.637 C 147.751 168.493,148.413 168.974,147.777 169.446 C 147.388 169.734,144.120 171.733,140.515 173.888 C 136.909 176.043,133.413 178.266,132.745 178.828 C 129.306 181.722,129.267 187.539,132.666 190.690 C 133.705 191.654,160.282 207.978,161.681 208.512 C 162.024 208.642,162.639 209.060,163.047 209.439 C 163.456 209.819,163.939 210.037,164.122 209.924 C 164.304 209.812,164.453 209.906,164.453 210.133 C 164.453 210.361,164.717 210.547,165.039 210.547 C 165.361 210.547,165.625 210.733,165.625 210.961 C 165.625 211.188,165.801 211.266,166.016 211.133 C 166.230 211.000,166.406 211.078,166.406 211.305 C 166.406 211.533,166.670 211.719,166.992 211.719 C 167.314 211.719,167.578 211.905,167.578 212.132 C 167.578 212.360,167.754 212.437,167.969 212.305 C 168.184 212.172,168.359 212.249,168.359 212.477 C 168.359 212.704,168.623 212.891,168.945 212.891 C 169.268 212.891,169.531 213.077,169.531 213.304 C 169.531 213.532,169.707 213.609,169.922 213.477 C 170.137 213.344,170.313 213.421,170.313 213.649 C 170.313 213.876,170.576 214.063,170.898 214.063 C 171.221 214.063,171.484 214.249,171.484 214.476 C 171.484 214.704,171.660 214.781,171.875 214.648 C 172.090 214.516,172.266 214.593,172.266 214.821 C 172.266 215.048,172.529 215.234,172.852 215.234 C 173.174 215.234,173.438 215.421,173.438 215.648 C 173.438 215.876,173.613 215.953,173.828 215.820 C 174.043 215.688,174.219 215.775,174.219 216.016 C 174.219 216.256,174.396 216.343,174.612 216.209 C 174.828 216.076,175.111 216.240,175.239 216.575 C 175.367 216.909,175.611 217.097,175.781 216.992 C 175.951 216.887,176.195 217.075,176.323 217.410 C 176.452 217.744,176.734 217.909,176.950 217.775 C 177.167 217.641,177.344 217.729,177.344 217.969 C 177.344 218.209,177.521 218.296,177.737 218.162 C 177.953 218.029,178.236 218.193,178.364 218.528 C 178.492 218.862,178.755 219.039,178.947 218.920 C 179.140 218.801,179.297 218.900,179.297 219.141 C 179.297 219.381,179.466 219.473,179.673 219.345 C 179.880 219.217,180.393 219.455,180.813 219.875 C 181.232 220.295,181.674 220.540,181.794 220.419 C 181.914 220.299,182.123 220.489,182.258 220.840 C 182.393 221.192,182.661 221.383,182.853 221.264 C 183.046 221.145,183.203 221.244,183.203 221.484 C 183.203 221.725,183.372 221.816,183.580 221.688 C 183.787 221.561,184.299 221.799,184.719 222.219 C 185.138 222.638,185.580 222.883,185.700 222.763 C 185.821 222.643,186.030 222.832,186.165 223.184 C 186.300 223.536,186.561 223.730,186.745 223.616 C 186.930 223.502,187.410 223.723,187.811 224.107 C 188.213 224.491,188.791 224.858,189.095 224.924 C 189.399 224.989,189.825 225.253,190.040 225.510 C 190.256 225.766,190.696 226.030,191.017 226.096 C 191.339 226.161,191.778 226.425,191.994 226.682 C 192.209 226.938,192.649 227.202,192.970 227.268 C 193.292 227.333,193.782 227.685,194.060 228.049 C 194.338 228.413,194.645 228.667,194.743 228.613 C 195.204 228.361,195.724 228.557,195.511 228.902 C 195.369 229.131,195.544 229.183,195.942 229.031 C 196.370 228.866,196.519 228.925,196.353 229.194 C 196.184 229.466,196.390 229.537,196.936 229.394 C 197.399 229.273,197.680 229.333,197.559 229.528 C 197.436 229.726,198.427 229.883,199.803 229.883 C 201.177 229.883,202.170 229.726,202.049 229.528 C 201.929 229.333,202.210 229.273,202.674 229.394 C 203.219 229.537,203.425 229.466,203.257 229.194 C 203.091 228.925,203.239 228.866,203.667 229.031 C 204.037 229.172,204.238 229.127,204.116 228.930 C 203.897 228.575,205.366 227.890,205.986 228.057 C 206.163 228.105,206.205 227.977,206.078 227.772 C 205.852 227.407,207.306 226.714,207.939 226.885 C 208.116 226.933,208.158 226.805,208.031 226.600 C 207.806 226.235,209.259 225.542,209.892 225.714 C 210.069 225.761,210.111 225.633,209.984 225.428 C 209.744 225.040,211.234 224.373,211.914 224.565 C 212.129 224.625,212.174 224.544,212.014 224.384 C 211.599 223.969,213.192 222.946,213.733 223.280 C 214.001 223.446,214.077 223.387,213.922 223.135 C 213.672 222.731,215.072 222.014,215.752 222.198 C 215.929 222.246,215.970 222.118,215.844 221.913 C 215.618 221.548,217.072 220.855,217.705 221.026 C 217.882 221.074,217.923 220.946,217.797 220.741 C 217.557 220.353,219.047 219.686,219.727 219.877 C 219.941 219.938,219.986 219.856,219.827 219.696 C 219.412 219.281,221.005 218.258,221.545 218.592 C 221.813 218.758,221.890 218.700,221.734 218.448 C 221.470 218.020,222.906 217.329,223.633 217.533 C 223.848 217.594,223.893 217.513,223.733 217.353 C 223.308 216.928,224.914 215.920,225.489 216.251 C 225.757 216.405,225.846 216.387,225.686 216.211 C 225.275 215.757,226.853 214.740,227.442 215.079 C 227.710 215.233,227.799 215.215,227.639 215.039 C 227.228 214.585,228.806 213.568,229.395 213.907 C 229.663 214.061,229.752 214.044,229.592 213.867 C 229.181 213.413,230.759 212.396,231.348 212.735 C 231.617 212.890,231.705 212.872,231.545 212.695 C 231.134 212.241,232.712 211.224,233.301 211.563 C 233.570 211.718,233.658 211.700,233.499 211.523 C 233.096 211.079,234.662 210.046,235.217 210.389 C 235.470 210.545,235.562 210.497,235.428 210.280 C 235.170 209.863,237.997 208.092,238.419 208.406 C 238.558 208.509,238.585 208.478,238.479 208.336 C 238.162 207.911,239.805 206.963,240.333 207.267 C 240.601 207.421,240.690 207.403,240.530 207.227 C 240.119 206.773,241.696 205.756,242.286 206.095 C 242.554 206.249,242.643 206.231,242.483 206.055 C 242.072 205.601,243.650 204.584,244.239 204.923 C 244.507 205.077,244.596 205.059,244.436 204.882 C 244.026 204.431,246.784 202.637,247.370 202.974 C 247.635 203.126,247.721 203.106,247.561 202.930 C 247.150 202.476,248.728 201.459,249.317 201.798 C 249.585 201.952,249.674 201.934,249.514 201.758 C 249.103 201.304,250.681 200.287,251.270 200.626 C 251.538 200.780,251.627 200.762,251.467 200.586 C 251.056 200.132,252.634 199.115,253.223 199.454 C 253.492 199.608,253.580 199.590,253.420 199.414 C 253.018 198.970,254.584 197.937,255.139 198.280 C 255.403 198.443,255.484 198.387,255.334 198.145 C 255.010 197.621,257.717 195.996,258.331 196.347 C 258.583 196.492,258.658 196.465,258.499 196.289 C 258.087 195.835,259.665 194.818,260.255 195.157 C 260.523 195.311,260.611 195.294,260.452 195.117 C 260.040 194.663,261.618 193.646,262.208 193.985 C 262.476 194.140,262.565 194.122,262.405 193.945 C 262.003 193.501,263.568 192.468,264.124 192.811 C 264.402 192.983,264.468 192.918,264.295 192.638 C 264.142 192.390,264.171 192.188,264.360 192.188 C 264.549 192.188,265.415 191.578,266.284 190.834 C 267.154 190.089,267.977 189.562,268.113 189.662 C 268.248 189.762,268.286 189.742,268.197 189.617 C 268.108 189.492,268.284 188.794,268.588 188.067 C 269.805 185.154,268.754 180.476,266.560 179.039 C 266.050 178.704,265.731 178.269,265.853 178.073 C 265.974 177.876,265.929 177.740,265.752 177.771 C 264.919 177.916,264.433 177.693,264.686 177.283 C 264.858 177.004,264.793 176.938,264.514 177.111 C 263.959 177.454,262.393 176.421,262.795 175.977 C 262.955 175.800,262.867 175.782,262.598 175.937 C 262.024 176.267,260.418 175.259,260.842 174.835 C 261.002 174.675,260.957 174.594,260.742 174.654 C 260.015 174.859,258.579 174.167,258.844 173.740 C 258.999 173.488,258.923 173.429,258.655 173.595 C 258.100 173.938,256.534 172.905,256.936 172.461 C 257.096 172.285,257.007 172.267,256.739 172.421 C 256.150 172.760,254.572 171.743,254.983 171.289 C 255.143 171.113,255.054 171.095,254.786 171.249 C 254.221 171.574,252.602 170.576,253.018 170.159 C 253.171 170.006,252.984 170.001,252.602 170.147 C 252.096 170.341,251.848 170.188,251.690 169.586 C 251.571 169.131,251.274 168.860,251.030 168.984 C 250.786 169.107,251.025 168.845,251.563 168.400 C 252.100 167.956,252.797 167.686,253.113 167.801 C 253.429 167.916,253.562 167.885,253.409 167.731 C 252.992 167.315,254.612 166.317,255.176 166.642 C 255.445 166.796,255.533 166.778,255.374 166.602 C 254.962 166.148,256.540 165.131,257.130 165.470 C 257.398 165.624,257.486 165.606,257.327 165.430 C 256.924 164.986,258.490 163.952,259.045 164.296 C 259.313 164.461,259.390 164.403,259.234 164.151 C 258.985 163.747,260.384 163.030,261.064 163.214 C 261.241 163.261,261.283 163.133,261.156 162.928 C 260.931 162.563,262.384 161.871,263.017 162.042 C 263.194 162.090,263.210 161.919,263.051 161.662 C 262.847 161.333,262.979 161.279,263.498 161.478 C 263.903 161.633,264.109 161.635,263.955 161.481 C 263.539 161.065,265.159 160.067,265.723 160.392 C 265.992 160.546,266.101 160.549,265.967 160.398 C 265.645 160.037,268.061 157.537,268.517 157.760 C 268.712 157.855,268.755 157.746,268.614 157.517 C 268.317 157.037,268.709 155.788,269.084 156.020 C 269.223 156.105,269.336 154.978,269.336 153.516 C 269.336 152.053,269.225 150.925,269.088 151.009 C 268.952 151.093,268.622 150.633,268.354 149.987 C 268.086 149.341,267.319 148.348,266.649 147.781 C 265.978 147.213,265.478 146.589,265.537 146.392 C 265.596 146.196,265.465 146.147,265.245 146.283 C 264.739 146.595,263.186 145.538,263.577 145.147 C 263.736 144.987,263.691 144.906,263.477 144.967 C 262.797 145.158,261.307 144.491,261.547 144.103 C 261.673 143.898,261.632 143.770,261.455 143.818 C 260.822 143.989,259.368 143.296,259.594 142.931 C 259.720 142.726,259.679 142.598,259.502 142.646 C 258.882 142.813,257.413 142.128,257.632 141.773 C 257.754 141.576,257.552 141.531,257.183 141.672 C 256.722 141.849,256.602 141.784,256.801 141.463 C 256.960 141.206,256.944 141.035,256.767 141.083 C 256.134 141.254,254.681 140.562,254.906 140.197 C 255.033 139.992,254.991 139.864,254.814 139.911 C 254.100 140.105,252.735 139.376,252.987 138.937 C 253.132 138.684,253.111 138.602,252.941 138.756 C 252.499 139.155,251.172 138.359,251.172 137.695 C 251.172 137.031,252.499 136.236,252.941 136.635 C 253.111 136.788,253.132 136.707,252.987 136.454 C 252.735 136.014,254.100 135.286,254.814 135.479 C 254.991 135.527,255.037 135.406,254.917 135.211 C 254.692 134.848,256.967 133.716,257.549 133.901 C 257.726 133.958,257.767 133.836,257.641 133.632 C 257.415 133.266,258.869 132.574,259.502 132.745 C 259.679 132.793,259.720 132.664,259.594 132.460 C 259.368 132.095,260.822 131.402,261.455 131.573 C 261.632 131.621,261.673 131.493,261.547 131.288 C 261.343 130.959,262.180 130.486,262.988 130.473 C 263.149 130.471,263.639 130.111,264.077 129.673 C 264.514 129.236,265.069 128.999,265.309 129.148 C 265.549 129.296,265.640 129.247,265.511 129.038 C 265.382 128.830,265.795 128.353,266.427 127.979 C 267.060 127.605,267.578 127.123,267.578 126.908 C 267.578 126.693,267.758 126.628,267.978 126.764 C 268.199 126.900,268.354 126.866,268.323 126.689 C 268.186 125.902,268.391 125.364,268.746 125.583 C 268.975 125.725,269.027 125.550,268.874 125.152 C 268.717 124.740,268.772 124.577,269.018 124.729 C 269.269 124.884,269.345 124.595,269.223 123.954 C 269.110 123.362,269.184 123.027,269.398 123.160 C 269.602 123.286,269.786 122.785,269.806 122.047 C 269.827 121.309,269.686 120.803,269.493 120.922 C 269.179 121.116,268.985 120.237,269.035 118.852 C 269.045 118.586,268.867 118.483,268.640 118.623 C 268.380 118.784,268.322 118.630,268.484 118.208 C 268.625 117.839,268.611 117.597,268.453 117.670 C 268.037 117.862,265.677 115.319,265.967 114.992 C 266.101 114.842,265.998 114.841,265.737 114.991 C 265.476 115.140,264.934 114.949,264.532 114.565 C 264.131 114.181,263.553 113.814,263.249 113.748 C 262.944 113.683,262.520 113.401,262.305 113.123 C 262.090 112.845,261.826 112.617,261.719 112.616 C 260.897 112.610,259.802 111.976,260.016 111.630 C 260.168 111.383,260.095 111.320,259.840 111.477 C 259.600 111.626,259.060 111.404,258.641 110.984 C 258.221 110.565,257.775 110.324,257.650 110.449 C 257.524 110.575,257.422 110.462,257.422 110.198 C 257.422 109.935,257.245 109.829,257.028 109.963 C 256.812 110.096,256.530 109.932,256.402 109.597 C 256.273 109.263,256.011 109.086,255.818 109.205 C 255.626 109.324,255.469 109.225,255.469 108.984 C 255.469 108.744,255.292 108.657,255.075 108.791 C 254.859 108.924,254.577 108.760,254.448 108.425 C 254.320 108.091,254.058 107.914,253.865 108.033 C 253.673 108.152,253.516 108.053,253.516 107.813 C 253.516 107.572,253.339 107.485,253.122 107.619 C 252.906 107.753,252.624 107.588,252.495 107.254 C 252.367 106.919,252.105 106.742,251.912 106.861 C 251.720 106.980,251.563 106.881,251.563 106.641 C 251.563 106.400,251.393 106.309,251.186 106.437 C 250.979 106.564,250.466 106.326,250.047 105.906 C 249.627 105.487,249.181 105.246,249.056 105.371 C 248.931 105.496,248.828 105.384,248.828 105.120 C 248.828 104.857,248.651 104.751,248.435 104.885 C 248.218 105.018,247.936 104.854,247.808 104.519 C 247.679 104.185,247.417 104.008,247.225 104.127 C 247.032 104.246,246.875 104.146,246.875 103.906 C 246.875 103.666,246.698 103.579,246.482 103.713 C 246.265 103.846,245.983 103.682,245.855 103.347 C 245.726 103.013,245.464 102.836,245.272 102.955 C 245.079 103.074,244.922 102.985,244.922 102.757 C 244.922 102.530,244.658 102.344,244.336 102.344 C 244.014 102.344,243.750 102.139,243.750 101.888 C 243.750 101.637,243.647 101.535,243.522 101.661 C 243.396 101.786,243.001 101.638,242.643 101.332 C 242.285 101.026,241.836 100.791,241.645 100.811 C 241.454 100.832,241.191 100.674,241.059 100.461 C 240.589 99.700,203.678 77.816,202.148 77.391 C 200.251 76.865,199.892 76.873,197.656 77.495 M215.234 91.613 C 222.861 96.169,230.728 100.883,232.715 102.089 C 234.702 103.294,236.328 104.189,236.328 104.078 C 236.328 103.967,236.706 104.228,237.169 104.659 C 237.631 105.089,238.158 105.350,238.340 105.237 C 238.523 105.124,238.672 105.229,238.672 105.469 C 238.672 105.709,238.848 105.797,239.063 105.664 C 239.277 105.531,239.453 105.604,239.453 105.826 C 239.453 106.255,241.790 107.638,242.285 107.502 C 242.446 107.458,242.578 107.598,242.578 107.813 C 242.578 108.027,242.842 108.203,243.164 108.203 C 243.486 108.203,243.750 108.389,243.750 108.617 C 243.750 108.844,243.926 108.922,244.141 108.789 C 244.355 108.656,244.531 108.744,244.531 108.984 C 244.531 109.225,244.689 109.324,244.881 109.205 C 245.073 109.086,245.336 109.263,245.464 109.597 C 245.593 109.932,245.875 110.096,246.091 109.963 C 246.307 109.829,246.484 109.906,246.484 110.133 C 246.484 110.361,246.748 110.547,247.070 110.547 C 247.393 110.547,247.656 110.733,247.656 110.961 C 247.656 111.188,247.832 111.266,248.047 111.133 C 248.262 111.000,248.438 111.088,248.438 111.328 C 248.438 111.568,248.615 111.655,248.831 111.522 C 249.047 111.388,249.329 111.552,249.458 111.887 C 249.586 112.222,249.849 112.398,250.041 112.279 C 250.233 112.161,250.391 112.260,250.391 112.500 C 250.391 112.740,250.568 112.827,250.784 112.694 C 251.000 112.560,251.282 112.724,251.411 113.059 C 251.539 113.394,251.802 113.570,251.994 113.451 C 252.186 113.332,252.344 113.432,252.344 113.672 C 252.344 113.912,252.521 113.999,252.737 113.865 C 252.953 113.732,253.236 113.896,253.364 114.231 C 253.492 114.565,253.755 114.742,253.947 114.623 C 254.140 114.504,254.297 114.604,254.297 114.844 C 254.297 115.084,254.474 115.171,254.690 115.037 C 254.907 114.904,255.189 115.068,255.317 115.403 C 255.446 115.737,255.702 115.918,255.886 115.804 C 256.071 115.690,256.579 115.954,257.017 116.392 C 257.455 116.830,257.944 117.190,258.105 117.192 C 258.989 117.206,259.745 117.691,259.513 118.095 C 259.368 118.348,259.388 118.430,259.557 118.277 C 259.944 117.928,262.109 119.020,262.109 119.564 C 262.109 119.786,262.271 119.868,262.469 119.746 C 262.866 119.501,264.457 121.334,264.447 122.025 C 264.444 122.265,264.263 122.197,264.045 121.875 C 263.741 121.425,263.675 121.555,263.758 122.434 C 263.876 123.671,261.701 125.645,260.792 125.126 C 260.550 124.988,260.483 125.019,260.643 125.196 C 261.033 125.626,258.665 127.043,258.119 126.706 C 257.873 126.554,257.803 126.621,257.953 126.865 C 258.203 127.269,256.803 127.986,256.123 127.802 C 255.946 127.754,255.905 127.882,256.031 128.087 C 256.257 128.452,254.803 129.145,254.170 128.974 C 253.993 128.926,253.952 129.054,254.078 129.259 C 254.304 129.624,252.850 130.317,252.217 130.146 C 252.040 130.098,251.999 130.226,252.125 130.431 C 252.351 130.796,250.897 131.489,250.264 131.318 C 250.087 131.270,250.045 131.398,250.172 131.603 C 250.412 131.991,248.922 132.658,248.242 132.467 C 248.027 132.406,247.983 132.488,248.143 132.648 C 248.545 133.051,246.149 134.455,245.619 134.128 C 245.363 133.969,245.303 134.044,245.471 134.315 C 245.715 134.711,245.496 134.830,244.691 134.740 C 244.564 134.725,244.256 134.979,244.007 135.304 C 243.758 135.629,243.306 135.948,243.001 136.014 C 242.697 136.079,242.119 136.447,241.718 136.831 C 241.316 137.214,240.791 137.407,240.550 137.259 C 240.295 137.101,240.222 137.164,240.375 137.412 C 240.613 137.796,239.738 138.303,238.929 138.251 C 238.749 138.239,238.397 138.495,238.148 138.820 C 237.899 139.144,237.432 139.464,237.111 139.529 C 236.789 139.595,236.350 139.859,236.134 140.115 C 235.919 140.372,235.493 140.636,235.189 140.701 C 234.884 140.767,234.307 141.134,233.905 141.518 C 233.503 141.902,233.005 142.111,232.798 141.983 C 232.591 141.855,232.422 141.958,232.422 142.212 C 232.422 142.545,232.249 142.530,231.802 142.159 C 231.327 141.765,231.246 141.274,231.456 140.061 C 232.142 136.081,231.803 121.324,231.010 120.666 C 230.712 120.419,230.466 120.370,230.463 120.558 C 230.459 120.745,230.309 120.665,230.128 120.380 C 229.947 120.094,225.435 117.254,220.101 114.068 L 210.403 108.276 210.377 105.377 C 210.261 92.310,190.547 91.819,189.480 104.857 L 189.258 107.565 178.750 113.878 C 168.086 120.285,167.188 120.955,167.188 122.504 C 167.188 124.215,167.766 124.699,174.841 128.907 C 186.405 135.785,187.489 136.328,189.682 136.330 C 191.587 136.331,191.607 136.344,192.320 138.077 C 196.210 147.536,211.018 144.256,211.059 133.926 C 211.100 123.606,197.253 120.134,192.580 129.294 C 191.408 131.590,190.717 131.402,182.506 126.541 L 175.753 122.543 184.200 117.531 L 192.646 112.518 194.066 113.483 C 197.650 115.918,200.910 116.103,204.594 114.082 L 206.650 112.954 209.673 114.679 C 211.335 115.627,215.661 118.206,219.286 120.409 L 225.878 124.414 225.955 132.422 C 225.998 136.826,226.175 141.606,226.349 143.043 C 226.653 145.548,226.068 147.423,225.242 146.596 C 225.109 146.463,225.000 146.570,225.000 146.833 C 225.000 147.096,224.843 147.214,224.650 147.096 C 224.458 146.977,224.196 147.153,224.067 147.488 C 223.939 147.823,223.657 147.987,223.440 147.853 C 223.224 147.720,223.047 147.807,223.047 148.047 C 223.047 148.287,222.890 148.386,222.697 148.267 C 222.505 148.149,222.242 148.325,222.114 148.660 C 221.986 148.994,221.703 149.159,221.487 149.025 C 221.271 148.891,221.094 148.979,221.094 149.219 C 221.094 149.459,220.936 149.558,220.744 149.439 C 220.552 149.320,220.289 149.497,220.161 149.832 C 220.032 150.166,219.750 150.331,219.534 150.197 C 219.318 150.063,219.141 150.150,219.141 150.391 C 219.141 150.631,218.983 150.730,218.791 150.611 C 218.599 150.492,218.336 150.669,218.208 151.004 C 218.079 151.338,217.797 151.503,217.581 151.369 C 217.365 151.235,217.188 151.322,217.188 151.563 C 217.188 151.803,217.030 151.902,216.838 151.783 C 216.645 151.664,216.383 151.841,216.255 152.175 C 216.126 152.510,215.844 152.674,215.628 152.541 C 215.411 152.407,215.234 152.494,215.234 152.734 C 215.234 152.975,215.077 153.074,214.885 152.955 C 214.692 152.836,214.430 153.013,214.302 153.347 C 214.173 153.682,213.891 153.846,213.675 153.713 C 213.458 153.579,213.281 153.666,213.281 153.906 C 213.281 154.146,213.124 154.246,212.932 154.127 C 212.739 154.008,212.477 154.185,212.348 154.519 C 212.220 154.854,211.938 155.018,211.722 154.885 C 211.505 154.751,211.328 154.838,211.328 155.078 C 211.328 155.318,211.171 155.418,210.978 155.299 C 210.786 155.180,210.524 155.356,210.395 155.691 C 210.267 156.026,209.985 156.190,209.768 156.056 C 209.552 155.923,209.375 156.010,209.375 156.250 C 209.375 156.490,209.198 156.577,208.982 156.444 C 208.765 156.310,208.483 156.474,208.355 156.809 C 208.226 157.144,207.964 157.320,207.772 157.201 C 207.579 157.082,207.422 157.182,207.422 157.422 C 207.422 157.662,207.245 157.749,207.028 157.615 C 206.812 157.482,206.530 157.646,206.402 157.981 C 206.273 158.315,206.011 158.492,205.818 158.373 C 205.626 158.254,205.469 158.343,205.469 158.571 C 205.469 158.798,205.205 158.984,204.883 158.984 C 204.561 158.984,204.297 159.189,204.297 159.440 C 204.297 159.691,204.188 159.787,204.054 159.653 C 203.921 159.520,203.177 159.842,202.401 160.370 C 200.255 161.828,199.400 161.617,193.896 158.271 C 191.130 156.589,182.100 151.078,173.828 146.023 C 165.557 140.968,153.732 133.793,147.552 130.077 C 134.373 122.156,134.076 121.799,138.451 119.180 C 172.804 98.611,198.227 83.502,198.902 83.252 C 200.309 82.732,200.721 82.942,215.234 91.613 M201.705 101.320 C 204.588 102.525,205.543 105.564,203.719 107.732 C 200.804 111.196,195.299 109.669,195.321 105.401 C 195.339 102.003,198.501 99.981,201.705 101.320 M204.395 131.232 C 207.379 134.572,203.518 139.617,199.453 137.688 C 196.164 136.127,196.141 131.460,199.414 130.037 C 200.914 129.385,203.243 129.944,204.395 131.232 M246.605 141.374 C 246.779 141.392,246.810 141.586,246.674 141.807 C 246.538 142.027,246.571 142.168,246.748 142.120 C 247.381 141.949,248.835 142.641,248.609 143.007 C 248.483 143.211,248.524 143.340,248.701 143.292 C 249.381 143.108,250.781 143.825,250.531 144.229 C 250.376 144.481,250.452 144.539,250.720 144.374 C 251.275 144.031,252.841 145.064,252.439 145.508 C 252.279 145.684,252.358 145.708,252.613 145.562 C 253.178 145.238,255.586 146.628,255.174 147.039 C 255.014 147.200,255.059 147.281,255.273 147.221 C 256.001 147.016,257.436 147.708,257.172 148.135 C 257.016 148.387,257.093 148.446,257.361 148.280 C 257.916 147.937,259.482 148.970,259.080 149.414 C 258.920 149.590,259.008 149.608,259.277 149.454 C 259.866 149.115,261.444 150.132,261.033 150.586 C 260.873 150.762,260.963 150.779,261.233 150.624 C 262.170 150.084,264.092 151.879,263.836 153.054 C 263.653 153.897,263.696 153.987,264.056 153.516 C 264.417 153.044,264.453 153.120,264.244 153.906 C 263.936 155.062,262.951 155.935,262.345 155.589 C 262.108 155.454,262.045 155.488,262.205 155.664 C 262.607 156.108,261.041 157.141,260.486 156.798 C 260.218 156.633,260.141 156.691,260.297 156.943 C 260.561 157.370,259.126 158.062,258.398 157.857 C 258.184 157.797,258.139 157.878,258.298 158.038 C 258.723 158.463,257.117 159.470,256.542 159.140 C 256.274 158.985,256.186 159.004,256.346 159.181 C 256.745 159.620,254.365 161.021,253.785 160.688 C 253.529 160.542,253.451 160.566,253.611 160.742 C 254.022 161.196,252.444 162.213,251.855 161.874 C 251.587 161.720,251.498 161.738,251.658 161.914 C 252.069 162.368,250.491 163.385,249.902 163.046 C 249.633 162.892,249.545 162.910,249.706 163.087 C 250.095 163.517,247.727 164.934,247.182 164.597 C 246.947 164.451,246.862 164.507,246.994 164.720 C 247.290 165.199,244.378 166.893,243.940 166.496 C 243.767 166.339,243.743 166.418,243.888 166.671 C 244.140 167.111,242.775 167.839,242.061 167.646 C 241.884 167.598,241.842 167.726,241.969 167.931 C 242.194 168.296,240.741 168.989,240.108 168.818 C 239.931 168.770,239.889 168.898,240.016 169.103 C 240.241 169.468,238.787 170.161,238.155 169.990 C 237.977 169.942,237.936 170.070,238.063 170.275 C 238.288 170.640,236.834 171.333,236.201 171.161 C 236.024 171.114,235.983 171.242,236.109 171.447 C 236.335 171.812,234.881 172.504,234.248 172.333 C 234.071 172.285,234.030 172.414,234.156 172.618 C 234.382 172.984,232.928 173.676,232.295 173.505 C 232.118 173.457,232.085 173.598,232.221 173.818 C 232.357 174.039,232.282 174.219,232.054 174.219 C 231.827 174.219,231.553 174.219,231.445 174.219 C 231.338 174.219,230.892 174.577,230.455 175.014 C 230.017 175.452,229.462 175.688,229.222 175.540 C 228.967 175.382,228.894 175.446,229.047 175.693 C 229.297 176.097,227.897 176.814,227.217 176.630 C 227.040 176.582,226.999 176.711,227.125 176.915 C 227.351 177.280,225.897 177.973,225.264 177.802 C 225.087 177.754,225.045 177.882,225.172 178.087 C 225.398 178.452,223.944 179.145,223.311 178.974 C 223.134 178.926,223.100 179.067,223.236 179.287 C 223.455 179.642,223.191 179.759,222.407 179.654 C 222.270 179.636,222.013 179.856,221.835 180.142 C 221.658 180.429,221.287 180.672,221.010 180.682 C 220.734 180.692,220.553 180.916,220.609 181.181 C 220.665 181.446,220.456 181.760,220.145 181.879 C 219.819 182.004,219.681 182.357,219.818 182.714 C 219.948 183.053,219.893 183.231,219.695 183.108 C 219.481 182.975,219.384 184.985,219.454 188.078 L 219.572 193.270 218.131 194.161 C 217.338 194.651,216.458 195.052,216.174 195.052 C 215.891 195.052,215.742 195.186,215.843 195.349 C 216.035 195.659,214.498 196.313,213.936 196.161 C 213.759 196.114,213.725 196.255,213.861 196.475 C 214.081 196.830,213.572 197.034,213.103 196.777 C 213.005 196.724,212.697 196.978,212.419 197.342 C 212.141 197.706,211.671 198.058,211.373 198.123 C 211.076 198.189,210.384 198.644,209.836 199.135 C 209.288 199.626,208.600 199.936,208.306 199.823 C 208.012 199.711,207.879 199.792,208.011 200.004 C 208.142 200.217,208.063 200.391,207.836 200.391 C 207.608 200.391,207.334 200.391,207.227 200.391 C 207.119 200.391,206.673 200.749,206.236 201.186 C 205.798 201.624,205.271 201.877,205.064 201.749 C 204.857 201.621,204.688 201.698,204.688 201.920 C 204.688 202.464,202.522 203.556,202.135 203.207 C 201.966 203.055,201.943 203.131,202.084 203.377 C 202.224 203.623,202.033 203.946,201.658 204.096 C 200.096 204.717,199.206 204.675,198.477 203.945 C 198.061 203.530,197.619 203.293,197.493 203.418 C 197.368 203.543,197.266 203.430,197.266 203.167 C 197.266 202.904,197.096 202.793,196.889 202.921 C 196.682 203.049,196.184 202.839,195.782 202.456 C 195.381 202.072,194.803 201.704,194.499 201.639 C 194.194 201.573,193.752 201.268,193.516 200.961 C 193.280 200.654,192.972 200.517,192.832 200.657 C 192.693 200.797,192.578 200.696,192.578 200.433 C 192.578 200.169,192.401 200.063,192.185 200.197 C 191.968 200.331,191.686 200.166,191.558 199.832 C 191.429 199.497,191.167 199.320,190.975 199.439 C 190.782 199.558,190.625 199.459,190.625 199.219 C 190.625 198.979,190.448 198.891,190.232 199.025 C 190.015 199.159,189.733 198.994,189.605 198.660 C 189.476 198.325,189.214 198.149,189.022 198.267 C 188.829 198.386,188.672 198.287,188.672 198.047 C 188.672 197.807,188.496 197.719,188.281 197.852 C 188.066 197.984,187.891 197.907,187.891 197.679 C 187.891 197.452,187.627 197.266,187.305 197.266 C 186.982 197.266,186.719 197.079,186.719 196.852 C 186.719 196.624,186.561 196.536,186.369 196.654 C 186.177 196.773,185.914 196.597,185.786 196.262 C 185.657 195.927,185.375 195.763,185.159 195.897 C 184.943 196.030,184.766 195.943,184.766 195.703 C 184.766 195.463,184.590 195.375,184.375 195.508 C 184.160 195.641,183.984 195.563,183.984 195.336 C 183.984 195.108,183.721 194.922,183.398 194.922 C 183.076 194.922,182.813 194.717,182.813 194.466 C 182.813 194.215,182.706 194.117,182.576 194.247 C 181.438 195.384,180.469 192.337,180.469 187.623 L 180.469 182.782 179.004 181.277 C 177.674 179.911,164.908 171.958,145.117 160.167 C 135.557 154.471,134.631 153.569,136.621 151.887 C 138.442 150.349,154.421 141.370,154.966 141.580 C 155.576 141.814,165.248 147.566,171.591 151.467 L 175.018 153.574 171.591 155.641 C 167.467 158.129,166.937 159.061,167.367 163.074 C 167.518 164.481,167.861 165.850,168.130 166.117 C 168.762 166.743,188.544 178.235,188.855 178.157 C 189.735 177.934,190.938 180.620,190.170 181.094 C 189.700 181.385,189.768 183.110,190.261 183.415 C 190.490 183.557,190.586 183.913,190.473 184.207 C 190.361 184.500,190.439 184.846,190.648 184.975 C 190.857 185.105,190.927 185.374,190.804 185.574 C 190.680 185.774,190.775 185.938,191.016 185.938 C 191.256 185.938,191.344 186.113,191.211 186.328 C 191.078 186.543,191.185 186.719,191.448 186.719 C 191.712 186.719,191.813 186.833,191.673 186.973 C 191.533 187.113,191.723 187.450,192.096 187.723 C 192.469 187.995,192.773 188.452,192.773 188.738 C 192.773 189.024,193.007 189.258,193.293 189.258 C 193.579 189.258,194.019 189.521,194.271 189.844 C 194.523 190.166,194.992 190.487,195.314 190.557 C 195.635 190.626,195.957 190.847,196.029 191.047 C 196.102 191.247,196.321 191.312,196.518 191.190 C 196.714 191.069,196.875 191.159,196.875 191.391 C 196.875 191.645,197.262 191.715,197.852 191.567 C 198.453 191.416,198.828 191.488,198.828 191.755 C 198.828 191.993,199.443 192.188,200.195 192.188 C 200.947 192.188,201.563 191.991,201.563 191.751 C 201.563 191.507,201.907 191.405,202.344 191.519 C 202.773 191.632,203.125 191.546,203.125 191.328 C 203.125 191.110,203.398 191.037,203.731 191.165 C 204.117 191.313,204.239 191.239,204.067 190.960 C 203.905 190.697,204.013 190.596,204.340 190.706 C 204.639 190.807,205.116 190.610,205.400 190.269 C 205.813 189.773,205.865 189.766,205.659 190.234 C 205.517 190.557,205.758 190.381,206.194 189.844 C 206.630 189.307,207.216 188.867,207.497 188.867 C 207.778 188.867,208.008 188.641,208.008 188.365 C 208.008 188.088,208.243 187.717,208.529 187.540 C 208.816 187.362,209.036 187.105,209.018 186.968 C 208.914 186.190,209.028 185.918,209.371 186.130 C 209.592 186.267,209.657 186.110,209.524 185.762 C 209.396 185.429,209.470 185.156,209.687 185.156 C 209.905 185.156,209.991 184.805,209.879 184.375 C 209.765 183.938,209.867 183.594,210.111 183.594 C 210.351 183.594,210.547 182.968,210.547 182.204 C 210.547 181.259,210.404 180.902,210.100 181.090 C 209.791 181.280,209.714 181.046,209.850 180.331 C 209.959 179.762,209.900 179.297,209.720 179.297 C 209.539 179.297,209.589 178.863,209.831 178.333 C 210.073 177.802,210.402 177.450,210.563 177.549 C 210.724 177.649,210.961 177.456,211.089 177.121 C 211.218 176.787,211.500 176.622,211.716 176.756 C 211.932 176.890,212.109 176.803,212.109 176.563 C 212.109 176.322,212.267 176.223,212.459 176.342 C 212.651 176.461,212.914 176.284,213.042 175.950 C 213.171 175.615,213.453 175.451,213.669 175.584 C 213.885 175.718,214.063 175.631,214.063 175.391 C 214.063 175.150,214.220 175.051,214.412 175.170 C 214.605 175.289,214.867 175.112,214.995 174.778 C 215.124 174.443,215.406 174.279,215.622 174.412 C 215.839 174.546,216.016 174.459,216.016 174.219 C 216.016 173.979,216.173 173.879,216.365 173.998 C 216.558 174.117,216.825 173.926,216.960 173.575 C 217.095 173.223,217.316 173.045,217.451 173.180 C 217.586 173.315,217.889 173.174,218.125 172.867 C 218.362 172.560,218.818 172.255,219.139 172.189 C 219.461 172.124,219.900 171.860,220.116 171.603 C 220.331 171.347,220.771 171.083,221.092 171.018 C 221.414 170.952,221.853 170.688,222.069 170.432 C 222.285 170.175,222.724 169.911,223.045 169.846 C 223.367 169.780,223.806 169.516,224.022 169.260 C 224.238 169.003,224.677 168.739,224.999 168.674 C 225.320 168.608,225.760 168.345,225.975 168.088 C 226.191 167.831,226.616 167.567,226.921 167.502 C 227.225 167.436,227.803 167.069,228.204 166.685 C 228.606 166.301,229.104 166.092,229.311 166.220 C 229.518 166.348,229.688 166.271,229.688 166.049 C 229.688 165.827,230.215 165.372,230.859 165.039 C 231.504 164.706,232.031 164.532,232.031 164.652 C 232.031 164.772,232.541 164.349,233.164 163.712 C 233.787 163.074,234.359 162.614,234.434 162.689 C 234.509 162.764,234.570 162.240,234.570 161.523 C 234.570 160.807,234.508 160.284,234.432 160.360 C 234.355 160.436,233.916 160.114,233.455 159.644 C 232.562 158.732,230.593 158.238,231.096 159.051 C 231.286 159.358,231.165 159.426,230.728 159.258 C 230.371 159.121,230.078 159.190,230.078 159.410 C 230.078 159.631,229.902 159.703,229.688 159.570 C 229.473 159.438,229.297 159.511,229.297 159.733 C 229.297 160.277,227.132 161.369,226.745 161.020 C 226.576 160.867,226.556 160.949,226.701 161.202 C 226.953 161.642,225.588 162.370,224.873 162.177 C 224.696 162.129,224.663 162.270,224.799 162.490 C 225.021 162.850,224.516 163.061,223.730 162.937 C 223.569 162.911,223.438 163.096,223.438 163.346 C 223.438 163.597,223.335 163.700,223.210 163.574 C 223.084 163.449,222.638 163.690,222.219 164.109 C 221.799 164.529,221.259 164.751,221.019 164.602 C 220.764 164.445,220.691 164.508,220.844 164.755 C 221.065 165.112,219.610 165.911,219.203 165.656 C 219.129 165.610,218.866 165.839,218.617 166.163 C 218.368 166.488,217.915 166.808,217.611 166.873 C 217.306 166.939,216.729 167.306,216.327 167.690 C 215.925 168.074,215.446 168.295,215.261 168.181 C 215.077 168.067,214.821 168.247,214.692 168.582 C 214.564 168.916,214.282 169.081,214.065 168.947 C 213.849 168.813,213.672 168.900,213.672 169.141 C 213.672 169.381,213.515 169.480,213.322 169.361 C 213.130 169.242,212.867 169.419,212.739 169.754 C 212.611 170.088,212.328 170.253,212.112 170.119 C 211.896 169.985,211.719 170.091,211.719 170.355 C 211.719 170.618,211.616 170.731,211.491 170.605 C 211.366 170.480,210.920 170.721,210.500 171.141 C 210.080 171.560,209.586 171.810,209.402 171.696 C 209.217 171.582,208.961 171.763,208.833 172.097 C 208.704 172.432,208.422 172.596,208.206 172.463 C 207.990 172.329,207.813 172.416,207.813 172.656 C 207.813 172.896,207.655 172.996,207.463 172.877 C 207.270 172.758,207.008 172.935,206.880 173.269 C 206.751 173.604,206.469 173.768,206.253 173.635 C 206.036 173.501,205.859 173.561,205.859 173.769 C 205.859 174.306,204.270 173.821,204.036 173.213 C 203.929 172.934,203.592 172.801,203.288 172.918 C 202.983 173.035,202.734 172.925,202.734 172.675 C 202.734 172.424,202.551 172.333,202.327 172.472 C 202.102 172.610,201.665 172.512,201.354 172.254 C 200.790 171.787,198.631 171.988,196.875 172.673 C 196.768 172.715,196.548 172.728,196.387 172.703 C 196.226 172.677,196.094 172.842,196.094 173.070 C 196.094 173.297,195.936 173.386,195.744 173.267 C 195.552 173.149,195.298 173.302,195.181 173.608 C 194.911 174.310,192.227 174.127,191.749 173.374 C 191.567 173.087,191.413 173.027,191.406 173.242 C 191.400 173.457,191.265 173.430,191.107 173.183 C 190.949 172.936,186.865 170.408,182.031 167.565 C 177.197 164.722,173.098 162.267,172.923 162.109 C 172.612 161.830,180.296 157.146,180.801 157.307 C 180.941 157.352,184.641 159.542,189.024 162.175 C 196.640 166.750,197.104 166.970,199.473 167.121 C 201.093 167.224,201.953 167.131,201.953 166.855 C 201.953 166.622,202.217 166.532,202.539 166.656 C 202.861 166.779,203.125 166.675,203.125 166.425 C 203.125 166.174,203.301 166.078,203.516 166.211 C 203.730 166.344,203.906 166.256,203.906 166.016 C 203.906 165.775,204.083 165.688,204.300 165.822 C 204.516 165.956,204.798 165.791,204.927 165.457 C 205.055 165.122,205.317 164.945,205.510 165.064 C 205.702 165.183,205.859 165.084,205.859 164.844 C 205.859 164.604,206.035 164.516,206.250 164.648 C 206.465 164.781,206.641 164.704,206.641 164.476 C 206.641 164.249,206.904 164.063,207.227 164.063 C 207.549 164.063,207.813 163.876,207.813 163.649 C 207.813 163.421,207.988 163.344,208.203 163.477 C 208.418 163.609,208.594 163.532,208.594 163.304 C 208.594 163.077,208.857 162.891,209.180 162.891 C 209.502 162.891,209.766 162.704,209.766 162.477 C 209.766 162.249,209.941 162.172,210.156 162.305 C 210.371 162.437,210.547 162.360,210.547 162.132 C 210.547 161.905,210.811 161.719,211.133 161.719 C 211.455 161.719,211.719 161.533,211.719 161.305 C 211.719 161.078,211.876 160.989,212.068 161.108 C 212.261 161.226,212.523 161.050,212.652 160.715 C 212.780 160.381,213.062 160.216,213.278 160.350 C 213.495 160.484,213.672 160.396,213.672 160.156 C 213.672 159.916,213.829 159.817,214.022 159.936 C 214.214 160.055,214.476 159.878,214.605 159.543 C 214.733 159.209,215.015 159.044,215.232 159.178 C 215.448 159.312,215.625 159.225,215.625 158.984 C 215.625 158.744,215.802 158.657,216.018 158.791 C 216.235 158.924,216.517 158.760,216.645 158.425 C 216.774 158.091,217.036 157.914,217.228 158.033 C 217.421 158.152,217.578 158.063,217.578 157.836 C 217.578 157.608,217.842 157.422,218.164 157.422 C 218.486 157.422,218.750 157.236,218.750 157.008 C 218.750 156.781,218.926 156.703,219.141 156.836 C 219.355 156.969,219.531 156.881,219.531 156.641 C 219.531 156.400,219.708 156.313,219.925 156.447 C 220.141 156.581,220.423 156.416,220.552 156.082 C 220.680 155.747,220.924 155.559,221.094 155.664 C 221.264 155.769,221.508 155.581,221.636 155.246 C 221.764 154.912,222.047 154.747,222.263 154.881 C 222.479 155.015,222.656 154.928,222.656 154.688 C 222.656 154.447,222.814 154.348,223.006 154.467 C 223.198 154.586,223.461 154.409,223.589 154.075 C 223.718 153.740,224.000 153.576,224.216 153.709 C 224.432 153.843,224.609 153.756,224.609 153.516 C 224.609 153.275,224.767 153.176,224.959 153.295 C 225.151 153.414,225.414 153.237,225.542 152.903 C 225.671 152.568,225.934 152.392,226.128 152.512 C 226.322 152.632,226.586 152.456,226.714 152.121 C 226.843 151.787,227.125 151.622,227.341 151.756 C 227.557 151.890,227.734 151.784,227.734 151.520 C 227.734 151.257,227.849 151.156,227.989 151.296 C 228.129 151.436,228.436 151.299,228.672 150.992 C 228.908 150.685,229.365 150.380,229.686 150.314 C 230.008 150.249,230.447 149.985,230.663 149.728 C 230.878 149.472,231.304 149.208,231.608 149.143 C 231.912 149.077,232.490 148.709,232.892 148.326 C 233.294 147.942,233.773 147.721,233.958 147.835 C 234.142 147.949,234.404 147.755,234.539 147.403 C 234.674 147.051,234.882 146.862,235.003 146.982 C 235.123 147.102,235.565 146.857,235.984 146.438 C 236.404 146.018,236.917 145.779,237.124 145.907 C 237.331 146.035,237.500 145.924,237.500 145.661 C 237.500 145.398,237.614 145.297,237.754 145.437 C 237.894 145.577,238.202 145.440,238.438 145.133 C 238.674 144.825,239.116 144.521,239.421 144.455 C 239.725 144.390,240.303 144.022,240.704 143.638 C 241.106 143.254,241.631 143.062,241.871 143.210 C 242.127 143.368,242.200 143.304,242.047 143.057 C 241.797 142.653,243.197 141.936,243.877 142.120 C 244.054 142.168,244.097 142.042,243.972 141.840 C 243.698 141.397,244.398 141.124,245.490 141.250 C 245.929 141.300,246.431 141.356,246.605 141.374 M269.622 153.516 C 269.622 154.268,269.702 154.575,269.801 154.199 C 269.899 153.823,269.899 153.208,269.801 152.832 C 269.702 152.456,269.622 152.764,269.622 153.516 M248.923 174.031 C 249.298 174.280,249.474 174.628,249.314 174.805 C 249.154 174.981,249.243 174.999,249.511 174.845 C 250.100 174.506,251.678 175.523,251.267 175.977 C 251.107 176.153,251.188 176.176,251.447 176.027 C 252.038 175.688,255.593 177.859,255.184 178.310 C 255.018 178.492,255.089 178.523,255.341 178.378 C 255.925 178.044,261.354 181.283,261.046 181.781 C 260.920 181.985,261.021 182.026,261.270 181.872 C 262.160 181.322,264.149 183.187,263.886 184.325 C 263.707 185.096,263.747 185.205,264.045 184.766 C 264.380 184.270,264.442 184.293,264.447 184.915 C 264.455 185.936,261.785 188.390,260.996 188.087 C 260.655 187.956,260.501 187.975,260.654 188.128 C 261.070 188.544,259.451 189.543,258.886 189.218 C 258.618 189.064,258.529 189.081,258.689 189.258 C 259.100 189.712,257.522 190.729,256.933 190.390 C 256.665 190.235,256.576 190.253,256.736 190.430 C 257.147 190.884,255.569 191.901,254.980 191.562 C 254.712 191.407,254.623 191.425,254.783 191.602 C 255.185 192.046,253.619 193.079,253.064 192.736 C 252.812 192.580,252.719 192.628,252.853 192.844 C 253.119 193.275,246.975 197.104,246.165 197.012 C 245.882 196.979,245.750 197.052,245.870 197.172 C 246.245 197.547,244.557 198.498,244.042 198.202 C 243.774 198.048,243.685 198.066,243.845 198.242 C 244.256 198.696,242.679 199.713,242.089 199.374 C 241.821 199.220,241.732 199.238,241.892 199.414 C 242.303 199.868,240.725 200.885,240.136 200.546 C 239.868 200.392,239.779 200.410,239.939 200.586 C 240.350 201.040,238.772 202.057,238.183 201.718 C 237.915 201.564,237.826 201.581,237.986 201.758 C 238.397 202.212,236.819 203.229,236.230 202.890 C 235.962 202.735,235.873 202.753,236.033 202.930 C 236.435 203.374,234.869 204.407,234.314 204.064 C 234.035 203.892,233.970 203.957,234.142 204.237 C 234.405 204.662,233.880 204.877,233.008 204.701 C 232.793 204.658,232.748 204.753,232.908 204.913 C 233.332 205.338,231.726 206.345,231.152 206.015 C 230.883 205.860,230.795 205.878,230.955 206.055 C 231.366 206.509,229.788 207.526,229.199 207.187 C 228.930 207.032,228.842 207.050,229.001 207.227 C 229.404 207.671,227.838 208.704,227.283 208.361 C 227.015 208.195,226.938 208.254,227.094 208.505 C 227.344 208.909,225.944 209.627,225.264 209.443 C 225.087 209.395,225.045 209.523,225.172 209.728 C 225.412 210.116,223.922 210.783,223.242 210.592 C 223.027 210.531,222.982 210.612,223.142 210.772 C 223.557 211.187,221.964 212.211,221.423 211.876 C 221.171 211.720,221.078 211.768,221.213 211.986 C 221.509 212.465,218.597 214.158,218.159 213.762 C 217.986 213.605,217.962 213.684,218.107 213.937 C 218.359 214.376,216.994 215.105,216.280 214.911 C 216.102 214.864,216.061 214.992,216.188 215.197 C 216.428 215.585,214.938 216.252,214.258 216.060 C 214.043 216.000,213.998 216.082,214.159 216.242 C 214.570 216.654,212.162 218.043,211.598 217.719 C 211.342 217.573,211.264 217.597,211.423 217.773 C 211.826 218.217,210.260 219.251,209.705 218.908 C 209.452 218.751,209.360 218.800,209.494 219.017 C 209.790 219.496,206.878 221.189,206.440 220.793 C 206.267 220.636,206.243 220.715,206.388 220.968 C 206.640 221.408,205.275 222.136,204.561 221.943 C 204.384 221.895,204.342 222.023,204.469 222.228 C 204.694 222.593,203.241 223.286,202.608 223.115 C 202.431 223.067,202.384 223.187,202.505 223.382 C 203.169 224.457,198.338 224.862,197.507 223.802 C 197.265 223.494,196.804 223.189,196.483 223.123 C 196.161 223.058,195.722 222.794,195.506 222.537 C 195.291 222.280,194.851 222.017,194.530 221.951 C 194.208 221.886,193.769 221.622,193.553 221.365 C 193.338 221.109,192.898 220.845,192.577 220.779 C 192.255 220.714,191.799 220.409,191.563 220.102 C 191.327 219.795,191.023 219.654,190.889 219.789 C 190.754 219.923,190.533 219.746,190.398 219.394 C 190.263 219.042,189.995 218.852,189.803 218.971 C 189.610 219.089,189.453 218.990,189.453 218.750 C 189.453 218.510,189.276 218.423,189.060 218.556 C 188.843 218.690,188.561 218.526,188.433 218.191 C 188.304 217.856,188.042 217.680,187.850 217.799 C 187.657 217.918,187.500 217.818,187.500 217.578 C 187.500 217.338,187.323 217.251,187.107 217.385 C 186.890 217.518,186.608 217.354,186.480 217.019 C 186.351 216.685,186.089 216.508,185.897 216.627 C 185.704 216.746,185.547 216.646,185.547 216.406 C 185.547 216.166,185.370 216.079,185.153 216.213 C 184.937 216.346,184.655 216.182,184.527 215.847 C 184.398 215.513,184.135 215.337,183.941 215.457 C 183.747 215.576,183.483 215.401,183.355 215.066 C 183.226 214.731,182.964 214.555,182.772 214.674 C 182.579 214.793,182.422 214.693,182.422 214.453 C 182.422 214.213,182.245 214.126,182.028 214.260 C 181.812 214.393,181.530 214.229,181.402 213.894 C 181.273 213.560,181.011 213.383,180.818 213.502 C 180.626 213.621,180.469 213.521,180.469 213.281 C 180.469 213.041,180.292 212.954,180.075 213.088 C 179.859 213.221,179.577 213.057,179.448 212.722 C 179.320 212.388,179.058 212.211,178.865 212.330 C 178.673 212.449,178.516 212.350,178.516 212.109 C 178.516 211.869,178.339 211.782,178.122 211.916 C 177.906 212.049,177.624 211.885,177.495 211.550 C 177.367 211.216,177.105 211.039,176.912 211.158 C 176.720 211.277,176.563 211.178,176.563 210.938 C 176.563 210.697,176.385 210.610,176.169 210.744 C 175.953 210.878,175.671 210.713,175.542 210.379 C 175.414 210.044,175.170 209.856,175.000 209.961 C 174.830 210.066,174.586 209.878,174.458 209.543 C 174.329 209.209,174.047 209.044,173.831 209.178 C 173.615 209.312,173.438 209.225,173.438 208.984 C 173.438 208.744,173.262 208.656,173.047 208.789 C 172.832 208.922,172.656 208.849,172.656 208.627 C 172.656 208.198,170.319 206.815,169.824 206.951 C 169.663 206.995,169.531 206.855,169.531 206.641 C 169.531 206.426,169.268 206.250,168.945 206.250 C 168.623 206.250,168.359 206.045,168.359 205.794 C 168.359 205.544,168.253 205.445,168.122 205.575 C 167.992 205.706,167.526 205.477,167.087 205.068 C 166.647 204.659,166.139 204.416,165.956 204.529 C 165.774 204.641,165.625 204.547,165.625 204.320 C 165.625 204.092,165.376 203.906,165.072 203.906 C 164.767 203.906,164.460 203.750,164.388 203.558 C 164.316 203.367,157.973 199.395,150.291 194.733 C 132.341 183.837,132.761 185.307,145.455 177.796 L 154.263 172.585 164.436 178.723 L 174.609 184.861 174.609 189.247 C 174.609 193.461,175.075 196.094,175.819 196.094 C 176.013 196.094,176.172 196.347,176.172 196.657 C 176.172 196.966,176.375 197.345,176.623 197.498 C 176.920 197.682,176.976 197.589,176.788 197.228 C 176.631 196.927,176.846 197.068,177.265 197.542 C 177.685 198.016,178.138 198.295,178.272 198.160 C 178.406 198.026,178.516 198.122,178.516 198.372 C 178.516 198.623,178.779 198.828,179.102 198.828 C 179.424 198.828,179.688 199.014,179.688 199.242 C 179.688 199.469,179.863 199.547,180.078 199.414 C 180.293 199.281,180.469 199.359,180.469 199.586 C 180.469 199.814,180.732 200.000,181.055 200.000 C 181.377 200.000,181.641 200.186,181.641 200.414 C 181.641 200.641,181.816 200.719,182.031 200.586 C 182.246 200.453,182.422 200.541,182.422 200.781 C 182.422 201.021,182.599 201.109,182.815 200.975 C 183.032 200.841,183.314 201.006,183.442 201.340 C 183.571 201.675,183.833 201.851,184.025 201.733 C 184.218 201.614,184.375 201.713,184.375 201.953 C 184.375 202.193,184.552 202.280,184.768 202.147 C 184.985 202.013,185.267 202.177,185.395 202.512 C 185.524 202.847,185.786 203.023,185.978 202.904 C 186.171 202.786,186.328 202.885,186.328 203.125 C 186.328 203.365,186.497 203.457,186.705 203.329 C 186.912 203.201,187.410 203.411,187.811 203.794 C 188.213 204.178,188.791 204.546,189.095 204.611 C 189.399 204.677,189.842 204.982,190.078 205.289 C 190.314 205.596,190.621 205.733,190.761 205.593 C 190.901 205.453,191.016 205.554,191.016 205.817 C 191.016 206.081,191.193 206.187,191.409 206.053 C 191.625 205.919,191.907 206.084,192.036 206.418 C 192.164 206.753,192.427 206.930,192.619 206.811 C 192.811 206.692,192.969 206.791,192.969 207.031 C 192.969 207.271,193.138 207.363,193.345 207.235 C 193.552 207.107,194.079 207.361,194.517 207.798 C 194.955 208.236,195.356 208.568,195.410 208.536 C 195.655 208.393,197.266 209.067,197.266 209.314 C 197.266 209.732,202.809 209.188,203.757 208.677 C 204.212 208.431,204.724 208.356,204.894 208.510 C 205.064 208.663,205.085 208.582,204.940 208.329 C 204.688 207.889,206.053 207.161,206.767 207.354 C 206.944 207.402,206.986 207.274,206.859 207.069 C 206.634 206.704,208.088 206.011,208.720 206.182 C 208.898 206.230,208.939 206.102,208.812 205.897 C 208.609 205.568,209.445 205.096,210.254 205.083 C 210.415 205.080,210.905 204.720,211.342 204.283 C 211.780 203.845,212.334 203.609,212.575 203.757 C 212.823 203.910,212.903 203.852,212.761 203.621 C 212.514 203.222,214.733 202.061,215.361 202.261 C 215.538 202.317,215.580 202.196,215.453 201.991 C 215.227 201.626,216.681 200.933,217.314 201.104 C 217.491 201.152,217.533 201.024,217.406 200.819 C 217.181 200.454,218.634 199.761,219.267 199.932 C 219.444 199.980,219.486 199.852,219.359 199.647 C 219.134 199.282,220.588 198.589,221.220 198.760 C 221.398 198.808,221.431 198.667,221.295 198.447 C 221.059 198.065,221.625 197.864,222.461 198.033 C 222.676 198.077,222.738 197.999,222.600 197.860 C 222.461 197.721,222.769 197.154,223.283 196.599 C 223.798 196.043,224.219 195.341,224.219 195.037 C 224.219 194.734,224.351 194.567,224.512 194.667 C 224.673 194.767,224.750 192.650,224.684 189.961 C 224.558 184.864,225.030 183.222,226.460 183.771 C 226.754 183.883,226.894 183.814,226.772 183.617 C 226.539 183.240,228.044 182.580,228.711 182.768 C 228.926 182.828,228.971 182.747,228.811 182.587 C 228.396 182.172,229.989 181.149,230.530 181.483 C 230.798 181.649,230.874 181.590,230.719 181.338 C 230.469 180.934,231.869 180.217,232.549 180.401 C 232.726 180.449,232.777 180.336,232.662 180.151 C 232.387 179.706,235.339 178.056,235.747 178.425 C 235.921 178.582,235.944 178.504,235.799 178.251 C 235.534 177.787,236.934 177.085,237.695 177.299 C 237.910 177.359,237.955 177.278,237.795 177.118 C 237.371 176.694,238.977 175.686,239.551 176.017 C 239.820 176.171,239.908 176.153,239.749 175.977 C 239.337 175.523,240.915 174.506,241.505 174.845 C 241.773 174.999,241.856 174.975,241.689 174.792 C 241.523 174.609,242.311 173.889,243.441 173.192 L 245.496 171.924 246.869 172.751 C 247.624 173.206,248.549 173.782,248.923 174.031 M201.172 177.782 C 201.172 177.996,201.374 178.046,201.622 177.893 C 201.869 177.740,202.309 177.939,202.598 178.335 C 202.888 178.731,203.125 178.913,203.125 178.738 C 203.125 178.563,203.387 178.637,203.707 178.903 C 204.027 179.168,204.192 179.541,204.074 179.732 C 203.956 179.922,204.057 180.078,204.297 180.078 C 204.537 180.078,204.625 180.254,204.492 180.469 C 204.359 180.684,204.437 180.859,204.664 180.859 C 205.305 180.859,205.152 183.073,204.464 183.761 C 204.127 184.099,203.978 184.375,204.134 184.375 C 204.290 184.375,204.104 184.722,203.719 185.147 C 203.335 185.572,202.868 185.825,202.682 185.710 C 202.496 185.595,202.344 185.681,202.344 185.902 C 202.344 186.123,202.080 186.202,201.758 186.079 C 201.436 185.955,201.172 186.049,201.172 186.286 C 201.172 186.524,200.732 186.719,200.195 186.719 C 199.658 186.719,199.219 186.528,199.219 186.296 C 199.219 186.063,198.999 185.946,198.730 186.037 C 198.462 186.127,198.009 185.922,197.725 185.581 C 197.322 185.098,197.272 185.090,197.499 185.547 C 197.697 185.944,197.520 185.896,196.951 185.397 C 196.490 184.992,196.206 184.509,196.321 184.323 C 196.436 184.137,196.334 183.984,196.094 183.984 C 195.854 183.984,195.766 183.809,195.898 183.594 C 196.031 183.379,195.954 183.203,195.726 183.203 C 195.499 183.203,195.313 182.676,195.313 182.031 C 195.313 181.387,195.518 180.859,195.768 180.859 C 196.019 180.859,196.120 180.755,195.993 180.628 C 195.670 180.305,198.434 177.686,198.836 177.935 C 199.017 178.046,199.251 177.998,199.357 177.826 C 199.642 177.366,201.172 177.328,201.172 177.782 M327.832 254.192 L 325.391 254.334 325.391 276.162 L 325.391 297.989 328.613 298.116 L 331.836 298.242 331.719 292.966 L 331.602 287.690 333.535 285.837 C 334.598 284.818,335.641 283.984,335.852 283.984 C 336.484 283.984,338.346 286.688,338.047 287.172 C 337.887 287.432,337.941 287.515,338.177 287.369 C 338.729 287.028,339.592 288.131,339.231 288.715 C 339.053 289.004,339.107 289.081,339.373 288.917 C 339.877 288.605,340.731 289.984,340.318 290.441 C 340.165 290.611,340.239 290.636,340.483 290.497 C 341.069 290.162,341.945 291.241,341.575 291.840 C 341.403 292.118,341.451 292.206,341.692 292.057 C 342.244 291.716,343.108 292.818,342.747 293.403 C 342.575 293.681,342.623 293.769,342.864 293.619 C 343.416 293.278,344.280 294.381,343.919 294.965 C 343.746 295.244,343.795 295.331,344.038 295.181 C 344.262 295.042,344.717 295.342,345.048 295.847 C 346.406 297.920,346.726 298.047,350.591 298.047 C 352.604 298.047,354.354 297.880,354.480 297.677 C 354.605 297.473,354.347 297.376,353.906 297.461 C 353.435 297.552,353.205 297.453,353.348 297.221 C 353.482 297.003,353.294 296.496,352.930 296.094 C 352.559 295.684,352.397 295.152,352.561 294.886 C 352.744 294.590,352.692 294.511,352.424 294.677 C 351.920 294.988,351.066 293.610,351.479 293.153 C 351.632 292.983,351.547 292.964,351.289 293.112 C 350.761 293.415,349.868 292.059,350.307 291.620 C 350.460 291.467,350.376 291.400,350.120 291.471 C 349.521 291.639,343.682 283.630,344.012 283.095 C 344.152 282.869,344.072 282.809,343.830 282.958 C 343.335 283.265,342.463 281.886,342.885 281.464 C 343.038 281.311,342.943 281.243,342.674 281.315 C 342.404 281.387,341.835 280.905,341.409 280.244 L 340.635 279.043 341.898 277.900 L 343.161 276.758 342.186 277.930 L 341.211 279.102 342.273 278.166 C 342.857 277.651,343.248 277.090,343.142 276.918 C 343.036 276.746,345.176 274.307,347.898 271.497 L 352.847 266.389 348.822 266.438 L 344.796 266.487 341.693 269.765 C 339.987 271.568,338.459 272.961,338.297 272.862 C 338.136 272.762,337.596 273.114,337.098 273.645 C 336.600 274.175,336.331 274.609,336.501 274.609 C 336.671 274.609,336.188 275.298,335.427 276.140 C 334.667 276.981,333.743 278.130,333.374 278.693 C 331.981 280.820,331.843 279.871,331.641 266.770 C 331.473 255.884,331.363 254.107,330.859 254.081 C 330.537 254.064,329.175 254.114,327.832 254.192 M234.290 261.997 L 234.180 266.602 231.738 266.718 L 229.297 266.834 229.297 269.355 L 229.297 271.875 231.618 271.875 C 234.555 271.875,234.287 270.858,234.421 282.497 C 234.492 288.713,234.677 292.437,234.908 292.295 C 235.122 292.163,235.186 292.423,235.059 292.908 C 234.916 293.454,234.987 293.659,235.259 293.491 C 235.528 293.325,235.587 293.473,235.422 293.902 C 235.270 294.300,235.322 294.475,235.551 294.333 C 235.906 294.114,236.111 294.652,235.974 295.439 C 235.943 295.616,236.078 295.662,236.274 295.541 C 236.470 295.420,236.870 295.611,237.163 295.965 C 237.456 296.319,238.527 296.994,239.543 297.466 C 240.559 297.937,241.321 298.393,241.235 298.478 C 241.113 298.599,249.503 298.213,249.902 298.080 C 249.956 298.062,250.000 296.816,250.000 295.313 L 250.000 292.578 247.363 292.577 C 243.318 292.574,241.094 290.878,241.575 288.161 C 241.744 287.204,241.711 287.096,241.433 287.695 C 241.195 288.207,241.061 285.747,241.043 280.566 C 241.019 273.651,241.092 272.656,241.625 272.656 C 241.960 272.656,242.149 272.519,242.045 272.351 C 241.941 272.183,243.455 272.002,245.409 271.948 C 247.959 271.879,249.053 271.993,249.280 272.352 C 249.459 272.633,249.600 271.528,249.603 269.824 L 249.609 266.797 245.605 266.723 L 241.602 266.649 245.117 266.406 L 248.633 266.163 245.033 266.089 L 241.433 266.016 241.322 261.816 L 241.211 257.617 237.805 257.505 L 234.400 257.392 234.290 261.997 M332.176 264.453 C 332.176 266.709,332.240 267.632,332.319 266.504 C 332.398 265.376,332.398 263.530,332.319 262.402 C 332.240 261.274,332.176 262.197,332.176 264.453 M158.398 265.600 C 156.620 266.032,154.691 267.110,152.637 268.817 L 150.781 270.359 150.781 268.805 C 150.781 266.161,150.618 266.016,147.646 266.016 C 143.337 266.016,143.750 264.298,143.750 282.227 C 143.750 296.216,143.819 297.990,144.368 298.200 C 144.708 298.331,146.378 298.438,148.079 298.438 L 151.172 298.438 151.180 288.965 C 151.188 280.620,151.274 279.304,151.906 277.914 C 153.282 274.884,157.273 272.490,160.570 272.717 L 162.535 272.852 162.469 269.043 L 162.404 265.234 160.987 265.274 C 160.208 265.296,159.043 265.443,158.398 265.600 M177.738 265.592 C 177.417 265.807,176.758 265.883,176.273 265.762 C 175.788 265.640,175.391 265.691,175.390 265.876 C 175.390 266.060,174.912 266.239,174.328 266.273 C 173.744 266.307,173.202 266.527,173.123 266.763 C 173.045 266.999,172.819 267.093,172.623 266.972 C 172.426 266.850,172.266 266.947,172.266 267.188 C 172.266 267.428,172.090 267.516,171.875 267.383 C 171.660 267.250,171.484 267.338,171.484 267.578 C 171.484 267.818,171.307 267.905,171.091 267.772 C 170.875 267.638,170.593 267.802,170.464 268.137 C 170.336 268.472,170.097 268.663,169.933 268.562 C 169.770 268.461,169.305 268.755,168.900 269.217 C 168.401 269.786,168.353 269.962,168.750 269.764 C 169.072 269.603,168.921 269.837,168.414 270.283 C 167.907 270.729,167.643 271.099,167.828 271.106 C 168.013 271.113,167.892 271.333,167.560 271.594 C 167.025 272.016,166.501 273.096,165.900 275.016 C 165.766 275.445,166.009 275.637,166.743 275.684 C 167.310 275.720,168.828 275.843,170.117 275.958 L 172.461 276.165 173.818 274.246 C 174.564 273.191,175.311 272.412,175.478 272.515 C 175.645 272.618,175.781 272.516,175.781 272.289 C 175.781 272.061,175.913 271.896,176.074 271.921 C 176.235 271.947,176.455 271.923,176.563 271.869 C 177.136 271.582,182.422 271.665,182.422 271.962 C 182.422 272.154,182.598 272.203,182.813 272.070 C 183.027 271.938,183.203 272.025,183.203 272.266 C 183.203 272.506,183.379 272.594,183.594 272.461 C 183.809 272.328,183.984 272.416,183.984 272.656 C 183.984 272.896,184.140 272.997,184.331 272.879 C 184.521 272.761,184.894 272.927,185.160 273.246 C 185.425 273.566,185.521 273.828,185.371 273.828 C 185.222 273.828,185.337 274.065,185.626 274.354 C 186.507 275.234,186.049 278.872,185.129 278.304 C 184.929 278.180,184.766 278.275,184.766 278.516 C 184.766 278.756,184.602 278.851,184.402 278.728 C 184.202 278.604,183.921 278.692,183.779 278.923 C 183.611 279.195,182.769 279.250,181.405 279.080 C 179.958 278.899,179.109 278.967,178.713 279.295 C 178.389 279.564,177.714 279.669,177.177 279.534 C 176.651 279.402,176.110 279.471,175.977 279.688 C 175.843 279.904,175.324 279.978,174.823 279.853 C 174.323 279.727,173.794 279.817,173.648 280.053 C 173.503 280.289,173.212 280.376,173.003 280.246 C 172.793 280.117,172.366 280.223,172.053 280.483 C 171.740 280.743,171.484 280.824,171.484 280.664 C 171.484 280.504,171.248 280.569,170.960 280.808 C 170.672 281.047,170.320 281.128,170.179 280.986 C 170.038 280.845,169.922 280.945,169.922 281.208 C 169.922 281.471,169.746 281.578,169.531 281.445 C 169.316 281.313,169.141 281.390,169.141 281.618 C 169.141 281.845,168.977 281.987,168.778 281.934 C 168.578 281.880,168.125 282.188,167.772 282.617 C 167.419 283.047,167.264 283.135,167.429 282.813 C 167.686 282.309,167.635 282.302,167.071 282.759 C 166.710 283.052,166.512 283.449,166.631 283.641 C 166.749 283.833,166.573 284.095,166.238 284.223 C 165.903 284.352,165.727 284.614,165.846 284.807 C 165.964 284.999,165.865 285.156,165.625 285.156 C 165.385 285.156,165.289 285.320,165.413 285.520 C 165.537 285.720,165.470 285.987,165.265 286.114 C 164.872 286.356,164.814 291.320,165.196 291.992 C 165.318 292.207,165.444 292.471,165.476 292.578 C 165.908 294.019,166.164 294.531,166.452 294.531 C 166.642 294.531,166.756 294.663,166.706 294.824 C 166.581 295.223,168.649 297.236,168.912 296.973 C 169.028 296.858,169.229 297.041,169.359 297.380 C 169.489 297.720,169.845 297.902,170.150 297.785 C 170.454 297.668,170.703 297.762,170.703 297.993 C 170.703 298.224,170.967 298.312,171.289 298.188 C 171.611 298.064,171.875 298.170,171.875 298.422 C 171.875 298.696,172.176 298.785,172.623 298.643 C 173.035 298.513,173.474 298.572,173.600 298.775 C 173.917 299.289,177.734 299.275,177.734 298.760 C 177.734 298.529,178.166 298.429,178.711 298.533 C 179.248 298.636,179.688 298.550,179.688 298.342 C 179.688 298.134,179.951 298.064,180.273 298.188 C 180.596 298.312,180.859 298.224,180.859 297.993 C 180.859 297.762,181.123 297.674,181.445 297.798 C 181.768 297.921,182.031 297.842,182.031 297.621 C 182.031 297.400,182.207 297.328,182.422 297.461 C 182.637 297.594,182.813 297.487,182.813 297.224 C 182.813 296.960,182.922 296.855,183.056 296.989 C 183.190 297.123,183.643 296.844,184.063 296.370 C 184.482 295.896,184.711 295.771,184.571 296.094 C 184.405 296.476,184.511 296.443,184.877 295.996 C 185.847 294.813,186.719 295.137,186.719 296.680 L 186.719 298.047 189.844 298.047 L 192.969 298.047 192.986 294.824 C 192.995 293.052,193.097 288.023,193.213 283.649 C 193.376 277.463,193.317 275.761,192.948 275.989 C 192.602 276.203,192.522 275.951,192.653 275.055 C 192.752 274.380,192.668 273.828,192.465 273.828 C 192.262 273.828,192.188 273.477,192.301 273.047 C 192.413 272.617,192.335 272.266,192.128 272.266 C 191.920 272.266,191.859 272.090,191.992 271.875 C 192.125 271.660,192.018 271.484,191.755 271.484 C 191.491 271.484,191.375 271.386,191.495 271.265 C 191.615 271.145,191.337 270.662,190.877 270.191 C 190.416 269.721,189.723 268.896,189.337 268.359 C 188.951 267.822,188.753 267.621,188.897 267.912 C 189.184 268.492,187.134 267.317,186.627 266.611 C 186.469 266.391,186.337 266.364,186.334 266.552 C 186.331 266.739,186.083 266.689,185.783 266.440 C 185.484 266.192,185.088 266.015,184.904 266.048 C 184.721 266.081,184.438 266.065,184.277 266.013 C 184.116 265.961,183.501 265.866,182.910 265.802 C 182.319 265.739,181.045 265.577,180.078 265.444 C 179.108 265.309,178.059 265.376,177.738 265.592 M211.626 265.511 C 212.112 265.604,212.815 265.601,213.188 265.503 C 213.562 265.405,213.164 265.329,212.305 265.333 C 211.445 265.337,211.140 265.417,211.626 265.511 M268.853 265.515 C 269.447 265.604,270.326 265.602,270.806 265.509 C 271.287 265.417,270.801 265.343,269.727 265.346 C 268.652 265.349,268.259 265.425,268.853 265.515 M52.984 266.233 C 52.154 266.537,50.616 267.403,49.566 268.158 L 47.656 269.530 47.650 268.261 C 47.640 266.149,47.329 265.968,43.911 266.096 L 40.820 266.211 40.820 282.227 L 40.820 298.242 44.405 298.354 L 47.990 298.466 48.116 287.938 L 48.242 277.409 49.414 275.751 C 52.292 271.679,58.614 271.452,61.029 275.335 C 61.878 276.700,61.922 277.192,62.109 287.500 L 62.305 298.242 66.016 298.242 L 69.727 298.242 69.835 288.867 C 69.993 275.311,69.219 271.777,65.351 268.371 C 62.427 265.798,56.817 264.828,52.984 266.233 M84.449 266.398 C 72.153 270.891,70.333 290.878,81.659 297.043 C 89.558 301.342,100.239 298.922,103.410 292.114 C 105.103 288.480,105.237 288.672,101.013 288.672 L 97.286 288.672 96.664 289.874 C 93.835 295.344,83.167 292.582,81.837 286.035 L 81.579 284.766 93.311 284.766 L 105.043 284.766 105.286 283.469 C 107.398 272.210,95.413 262.392,84.449 266.398 M208.022 266.038 C 208.168 266.274,204.701 267.354,204.170 267.238 C 203.993 267.200,203.960 267.348,204.096 267.568 C 204.314 267.921,203.792 268.134,203.352 267.871 C 203.125 267.736,201.196 269.578,201.252 269.876 C 201.325 270.264,199.752 273.450,199.575 273.273 C 199.487 273.184,199.414 274.311,199.414 275.777 C 199.414 277.272,199.570 278.345,199.769 278.222 C 199.964 278.101,200.024 278.382,199.903 278.846 C 199.781 279.309,199.842 279.590,200.036 279.470 C 200.379 279.258,200.566 279.864,200.404 280.664 C 200.361 280.879,200.443 280.937,200.586 280.794 C 200.934 280.446,202.361 281.688,202.099 282.111 C 201.987 282.292,202.040 282.401,202.217 282.351 C 202.813 282.185,205.478 283.263,205.276 283.589 C 205.167 283.766,205.456 283.812,205.920 283.691 C 206.421 283.560,206.667 283.626,206.526 283.854 C 206.395 284.065,206.588 284.237,206.953 284.237 C 208.788 284.234,209.792 284.407,209.614 284.695 C 209.505 284.871,209.959 284.935,210.623 284.838 C 211.307 284.737,211.733 284.817,211.606 285.022 C 211.479 285.228,211.981 285.314,212.776 285.221 C 213.590 285.126,214.074 285.212,213.941 285.427 C 213.809 285.641,214.220 285.722,214.920 285.619 C 215.694 285.505,216.037 285.588,215.875 285.849 C 215.721 286.099,215.920 286.178,216.393 286.054 C 217.410 285.788,219.541 287.896,219.504 289.130 C 219.478 289.994,219.458 290.001,219.107 289.258 C 218.808 288.626,218.780 288.689,218.957 289.592 C 219.223 290.947,218.189 292.746,217.333 292.418 C 216.963 292.276,216.856 292.358,217.036 292.649 C 217.224 292.954,217.097 293.018,216.645 292.844 C 216.277 292.703,216.069 292.739,216.184 292.926 C 216.299 293.112,215.847 293.374,215.179 293.507 C 213.391 293.865,210.078 293.803,210.317 293.416 C 210.430 293.232,210.063 293.170,209.500 293.277 C 208.801 293.411,208.564 293.333,208.751 293.030 C 208.926 292.746,208.810 292.670,208.427 292.816 C 207.626 293.124,205.314 290.812,205.621 290.010 C 205.752 289.669,205.685 289.515,205.464 289.651 C 205.252 289.782,205.078 289.704,205.078 289.476 C 205.078 288.605,198.555 288.961,198.324 289.844 C 198.212 290.274,198.279 290.528,198.474 290.407 C 198.789 290.212,198.984 291.089,198.934 292.476 C 198.924 292.743,199.072 292.864,199.263 292.746 C 199.599 292.538,199.783 293.151,199.623 293.945 C 199.580 294.160,199.658 294.223,199.796 294.084 C 200.108 293.772,202.185 295.667,202.051 296.141 C 201.997 296.330,202.085 296.464,202.246 296.438 C 203.065 296.309,203.532 296.533,203.283 296.935 C 203.119 297.201,203.175 297.281,203.420 297.129 C 203.944 296.805,205.140 297.240,204.880 297.661 C 204.774 297.833,205.066 297.875,205.529 297.754 C 206.069 297.612,206.280 297.683,206.115 297.949 C 205.951 298.215,206.161 298.285,206.701 298.144 C 207.185 298.018,207.446 298.082,207.315 298.294 C 207.181 298.512,207.661 298.598,208.479 298.502 C 209.276 298.409,209.776 298.495,209.648 298.702 C 209.512 298.923,210.522 298.942,212.232 298.752 C 213.776 298.581,215.856 298.396,216.854 298.341 C 217.852 298.287,218.588 298.110,218.491 297.949 C 218.326 297.678,219.055 297.509,220.211 297.551 C 220.477 297.560,220.618 297.444,220.525 297.293 C 220.346 297.004,222.674 295.471,223.098 295.598 C 223.385 295.684,224.541 294.473,224.582 294.043 C 224.597 293.882,224.609 293.564,224.609 293.336 C 224.609 293.109,224.783 293.030,224.996 293.161 C 225.225 293.303,225.277 293.128,225.124 292.730 C 224.970 292.326,225.023 292.156,225.259 292.302 C 225.511 292.457,225.651 291.221,225.651 288.850 C 225.651 286.818,225.573 285.234,225.477 285.330 C 225.237 285.570,223.219 283.118,223.340 282.733 C 223.394 282.562,223.306 282.457,223.145 282.499 C 222.544 282.658,221.091 281.962,221.304 281.617 C 221.426 281.420,221.224 281.374,220.855 281.516 C 220.427 281.680,220.278 281.621,220.444 281.353 C 220.612 281.081,220.407 281.010,219.861 281.153 C 219.321 281.294,219.111 281.224,219.275 280.957 C 219.440 280.691,219.230 280.621,218.689 280.762 C 218.173 280.897,217.941 280.829,218.091 280.587 C 218.243 280.342,217.947 280.265,217.313 280.387 C 216.543 280.534,216.368 280.456,216.604 280.074 C 216.811 279.739,216.764 279.662,216.465 279.846 C 215.788 280.265,212.293 279.669,212.949 279.247 C 213.268 279.042,212.951 279.008,212.146 279.163 C 211.289 279.328,210.903 279.278,211.060 279.024 C 211.211 278.779,210.914 278.703,210.282 278.824 C 209.625 278.949,209.350 278.872,209.513 278.609 C 209.674 278.348,209.458 278.278,208.924 278.418 C 208.351 278.568,208.169 278.496,208.358 278.191 C 208.530 277.912,208.430 277.822,208.091 277.952 C 207.250 278.275,206.552 277.124,206.424 275.203 C 206.298 273.324,208.011 271.177,209.255 271.654 C 209.558 271.771,209.708 271.707,209.588 271.513 C 209.463 271.311,210.665 271.206,212.400 271.269 C 216.182 271.405,216.119 271.392,215.783 271.935 C 215.614 272.210,215.676 272.281,215.941 272.116 C 216.540 271.746,218.081 273.362,217.808 274.074 C 217.684 274.398,217.756 274.545,217.973 274.411 C 218.186 274.280,218.359 274.447,218.359 274.782 C 218.359 275.282,218.910 275.391,221.440 275.391 L 224.521 275.391 224.692 274.222 C 224.787 273.579,224.784 273.133,224.687 273.230 C 224.474 273.443,222.978 270.706,222.942 270.037 C 222.928 269.778,222.794 269.642,222.643 269.735 C 222.233 269.988,221.046 268.537,221.386 268.197 C 221.547 268.036,221.504 267.950,221.289 268.007 C 220.792 268.137,217.969 266.746,217.969 266.370 C 217.969 266.216,217.590 266.188,217.126 266.309 C 216.663 266.430,216.383 266.370,216.503 266.175 C 216.629 265.971,214.850 265.820,212.305 265.820 C 209.875 265.820,207.948 265.918,208.022 266.038 M109.635 266.276 C 109.100 266.812,109.357 287.982,109.925 290.116 C 112.291 299.003,122.508 302.174,129.368 296.150 C 131.173 294.565,131.250 294.588,131.250 296.695 L 131.250 298.468 134.668 298.355 L 138.086 298.242 138.086 282.422 L 138.086 266.602 134.473 266.489 L 130.859 266.377 130.857 275.864 C 130.854 289.640,129.676 292.151,123.202 292.179 C 117.813 292.202,117.023 290.326,116.871 277.157 C 116.783 269.557,116.620 266.536,116.285 266.323 C 115.711 265.958,109.994 265.918,109.635 266.276 M264.063 266.820 C 262.881 267.272,261.619 267.664,261.258 267.693 C 260.898 267.722,260.627 267.840,260.656 267.955 C 260.685 268.070,260.164 268.733,259.499 269.429 C 258.834 270.124,257.943 271.394,257.520 272.250 C 257.096 273.106,256.649 273.706,256.526 273.583 C 256.403 273.461,256.407 273.757,256.533 274.241 C 256.693 274.850,256.624 275.036,256.312 274.843 C 256.063 274.689,255.859 274.749,255.859 274.977 C 255.859 276.151,262.665 275.439,263.375 274.191 C 263.788 273.466,264.234 273.107,264.510 273.277 C 264.787 273.448,264.859 273.388,264.696 273.124 C 264.318 272.513,266.470 271.486,268.673 271.226 C 270.681 270.989,273.987 271.692,273.624 272.279 C 273.499 272.482,273.646 272.552,273.950 272.435 C 274.911 272.066,276.563 274.462,276.563 276.225 C 276.563 277.150,276.406 277.684,276.176 277.542 C 275.947 277.400,275.895 277.576,276.049 277.977 C 276.249 278.500,276.156 278.593,275.633 278.393 C 275.261 278.250,275.058 278.294,275.181 278.492 C 275.492 278.996,274.516 279.218,270.703 279.510 C 268.877 279.650,266.104 280.018,264.542 280.329 C 262.980 280.640,261.502 280.772,261.259 280.621 C 260.988 280.454,260.925 280.523,261.096 280.799 C 261.258 281.062,261.133 281.250,260.795 281.250 C 260.477 281.250,259.428 281.852,258.464 282.588 C 257.500 283.323,256.580 283.807,256.418 283.662 C 256.257 283.517,256.256 283.626,256.416 283.904 C 256.577 284.182,256.474 284.692,256.187 285.037 C 255.438 285.940,255.590 294.349,256.348 293.884 C 256.624 293.714,256.801 294.338,256.677 295.049 C 256.646 295.226,256.776 295.275,256.965 295.158 C 257.336 294.929,259.110 296.620,258.811 296.918 C 258.712 297.017,258.930 297.119,259.296 297.143 C 259.662 297.168,260.752 297.486,261.719 297.850 C 263.128 298.381,264.212 298.464,267.188 298.268 C 272.400 297.926,272.608 297.894,272.360 297.492 C 272.237 297.293,272.437 297.248,272.808 297.390 C 273.176 297.532,273.383 297.493,273.266 297.304 C 272.986 296.851,274.910 295.601,275.411 295.911 C 275.625 296.044,275.752 295.919,275.693 295.635 C 275.628 295.322,275.872 295.166,276.309 295.241 C 276.796 295.324,276.935 295.209,276.737 294.888 C 276.552 294.589,276.604 294.511,276.876 294.679 C 277.114 294.826,277.210 295.205,277.089 295.521 C 276.373 297.387,277.216 298.047,280.311 298.047 L 283.264 298.047 283.121 286.426 C 282.998 276.333,282.886 274.574,282.271 273.047 C 281.882 272.080,281.543 270.994,281.518 270.634 C 281.494 270.274,281.362 270.048,281.226 270.132 C 281.090 270.216,280.492 269.776,279.897 269.155 C 277.087 266.223,268.820 265.004,264.063 266.820 M299.892 266.779 C 298.650 267.176,297.384 267.709,297.077 267.963 C 296.770 268.218,296.308 268.296,296.051 268.137 C 295.762 267.959,295.685 268.014,295.849 268.279 C 296.080 268.654,294.891 269.648,294.485 269.420 C 294.403 269.374,294.381 269.411,294.437 269.502 C 294.664 269.876,292.823 271.442,292.424 271.214 C 292.186 271.079,292.118 271.108,292.271 271.278 C 292.684 271.735,291.830 273.113,291.326 272.802 C 291.089 272.656,291.002 272.708,291.132 272.920 C 291.263 273.131,290.933 274.384,290.400 275.704 C 288.601 280.157,288.722 286.034,290.693 289.955 C 291.101 290.768,291.314 291.630,291.165 291.871 C 291.005 292.130,291.071 292.200,291.326 292.042 C 291.830 291.730,292.684 293.109,292.271 293.566 C 292.118 293.736,292.186 293.765,292.424 293.629 C 292.661 293.494,293.273 293.828,293.784 294.372 C 294.295 294.916,295.289 295.717,295.992 296.151 C 296.695 296.586,297.154 297.130,297.012 297.359 C 296.870 297.589,296.927 297.670,297.139 297.539 C 297.350 297.409,298.388 297.578,299.445 297.916 C 301.124 298.452,309.618 298.941,309.151 298.474 C 308.865 298.188,313.401 296.512,313.797 296.757 C 314.010 296.888,314.063 296.800,313.915 296.562 C 313.766 296.321,314.087 295.840,314.635 295.481 C 315.178 295.125,316.123 294.153,316.735 293.320 C 317.347 292.488,317.973 291.931,318.125 292.083 C 318.276 292.235,318.274 292.028,318.118 291.623 C 317.957 291.203,317.990 290.983,318.195 291.110 C 318.393 291.232,318.563 290.953,318.574 290.490 C 318.584 290.027,318.730 289.246,318.898 288.754 C 319.200 287.867,319.174 287.860,316.145 287.934 L 313.086 288.009 311.914 289.805 C 309.160 294.027,302.144 294.628,298.977 290.915 C 298.251 290.063,298.252 290.060,299.023 290.632 C 299.746 291.167,299.765 291.160,299.272 290.532 C 298.979 290.158,298.591 289.944,298.410 290.056 C 297.925 290.356,296.759 288.395,297.097 287.847 C 297.272 287.564,297.221 287.481,296.967 287.639 C 296.314 288.042,295.588 285.294,295.588 282.422 C 295.588 279.693,296.311 276.800,296.902 277.165 C 297.097 277.286,297.141 277.083,296.999 276.714 C 296.838 276.292,296.895 276.138,297.155 276.299 C 297.390 276.444,297.545 276.261,297.514 275.875 C 297.485 275.499,297.692 275.243,297.978 275.303 C 298.263 275.362,298.399 275.253,298.280 275.062 C 297.995 274.601,299.393 273.352,299.771 273.730 C 299.933 273.891,300.007 273.760,299.935 273.438 C 299.855 273.078,300.067 272.872,300.484 272.905 C 300.870 272.936,301.053 272.781,300.908 272.546 C 300.748 272.286,300.902 272.228,301.323 272.390 C 301.692 272.532,301.899 272.494,301.782 272.306 C 301.275 271.484,306.528 271.166,308.471 271.900 C 309.815 272.408,311.769 274.212,311.481 274.679 C 311.365 274.866,311.503 274.971,311.787 274.912 C 312.094 274.849,312.294 275.143,312.279 275.634 C 312.255 276.413,312.460 276.467,315.730 276.533 C 319.597 276.611,319.580 276.631,318.099 273.719 C 317.795 273.122,317.668 272.436,317.818 272.194 C 317.979 271.933,317.914 271.863,317.658 272.021 C 317.155 272.332,316.300 270.954,316.713 270.497 C 316.867 270.326,316.796 270.299,316.556 270.436 C 316.028 270.737,314.720 269.395,315.136 268.979 C 315.297 268.817,315.254 268.739,315.039 268.804 C 314.824 268.870,313.662 268.451,312.456 267.874 C 308.281 265.876,303.909 265.495,299.892 266.779 M94.730 273.049 C 97.142 274.540,98.435 277.581,97.187 278.828 C 96.856 279.160,94.556 279.297,89.332 279.297 L 81.944 279.297 82.216 277.832 C 83.160 272.738,89.998 270.124,94.730 273.049 M229.980 272.548 C 230.679 272.635,231.821 272.635,232.520 272.548 C 233.218 272.462,232.646 272.391,231.250 272.391 C 229.854 272.391,229.282 272.462,229.980 272.548 M260.063 276.058 C 260.549 276.151,261.252 276.147,261.626 276.050 C 261.999 275.952,261.602 275.875,260.742 275.880 C 259.883 275.884,259.577 275.964,260.063 276.058 M276.875 285.416 C 277.010 287.756,276.085 290.456,275.301 290.005 C 275.028 289.847,274.937 289.864,275.099 290.042 C 275.468 290.450,274.238 291.855,273.766 291.563 C 273.575 291.445,273.466 291.577,273.525 291.857 C 273.675 292.568,270.162 293.712,267.767 293.733 C 265.548 293.752,263.055 292.628,263.139 291.647 C 263.169 291.304,263.056 291.109,262.887 291.213 C 262.438 291.491,262.109 290.387,262.109 288.601 C 262.109 286.689,264.293 284.140,265.631 284.490 C 266.118 284.617,266.312 284.538,266.151 284.278 C 265.978 283.998,266.328 283.946,267.224 284.118 C 268.120 284.290,268.367 284.254,267.981 284.006 C 267.349 283.600,270.267 283.310,274.414 283.367 L 276.758 283.398 276.875 285.416 M184.430 283.984 L 186.719 283.984 186.719 285.742 C 186.719 286.767,186.538 287.500,186.286 287.500 C 186.049 287.500,185.955 287.764,186.079 288.086 C 186.202 288.408,186.123 288.672,185.902 288.672 C 185.681 288.672,185.609 288.848,185.742 289.063 C 185.875 289.277,185.787 289.453,185.547 289.453 C 185.307 289.453,185.203 289.603,185.316 289.787 C 185.430 289.971,185.089 290.529,184.558 291.027 C 184.028 291.525,183.594 291.815,183.594 291.670 C 183.594 291.525,183.229 291.771,182.782 292.218 C 182.336 292.664,181.721 292.933,181.415 292.816 C 181.109 292.699,180.859 292.792,180.859 293.023 C 180.859 293.277,180.472 293.347,179.883 293.199 C 179.320 293.058,178.906 293.122,178.906 293.352 C 178.906 293.571,178.291 293.750,177.539 293.750 C 176.787 293.750,176.172 293.555,176.172 293.318 C 176.172 293.080,175.921 292.981,175.614 293.099 C 175.308 293.217,174.849 293.062,174.594 292.755 C 174.339 292.447,173.963 292.300,173.758 292.426 C 173.553 292.553,173.288 292.287,173.170 291.836 C 173.052 291.385,172.813 291.016,172.638 291.016 C 171.030 291.016,173.466 285.130,175.201 284.824 C 175.627 284.749,176.089 284.507,176.226 284.286 C 176.363 284.065,176.669 284.004,176.906 284.151 C 177.144 284.297,177.647 284.227,178.024 283.995 C 178.402 283.763,179.483 283.666,180.426 283.779 C 181.369 283.892,183.170 283.984,184.430 283.984 " stroke="none" fill="#4785f5" fill-rule="evenodd" data-index="0"></path><path id="path2" d="M231.787 125.977 C 231.788 128.340,231.852 129.256,231.930 128.013 C 232.007 126.770,232.007 124.836,231.928 123.716 C 231.849 122.596,231.786 123.613,231.787 125.977 M231.731 139.453 C 231.731 140.205,231.812 140.513,231.910 140.137 C 232.008 139.761,232.008 139.146,231.910 138.770 C 231.812 138.394,231.731 138.701,231.731 139.453 M225.902 141.992 C 225.904 143.281,225.977 143.762,226.064 143.059 C 226.151 142.357,226.149 141.303,226.060 140.716 C 225.971 140.129,225.900 140.703,225.902 141.992 M324.792 275.781 C 324.792 288.135,324.842 293.188,324.902 287.012 C 324.963 280.835,324.963 270.728,324.902 264.551 C 324.842 258.374,324.792 263.428,324.792 275.781 M89.360 265.511 C 89.846 265.604,90.549 265.601,90.923 265.503 C 91.296 265.405,90.898 265.329,90.039 265.333 C 89.180 265.337,88.874 265.417,89.360 265.511 M132.715 266.302 C 133.628 266.384,135.122 266.384,136.035 266.302 C 136.948 266.219,136.201 266.152,134.375 266.152 C 132.549 266.152,131.802 266.219,132.715 266.302 M230.378 266.299 C 231.080 266.386,232.135 266.384,232.722 266.295 C 233.309 266.206,232.734 266.134,231.445 266.137 C 230.156 266.139,229.676 266.212,230.378 266.299 M332.177 272.461 C 332.178 274.824,332.243 275.741,332.320 274.497 C 332.398 273.254,332.397 271.321,332.319 270.201 C 332.240 269.080,332.176 270.098,332.177 272.461 M178.613 271.754 C 178.989 271.852,179.604 271.852,179.980 271.754 C 180.356 271.655,180.049 271.575,179.297 271.575 C 178.545 271.575,178.237 271.655,178.613 271.754 M241.569 279.883 C 241.569 283.965,241.627 285.582,241.698 283.476 C 241.768 281.370,241.768 278.030,241.697 276.054 C 241.626 274.078,241.569 275.801,241.569 279.883 M198.919 275.781 C 198.919 276.533,198.999 276.841,199.097 276.465 C 199.196 276.089,199.196 275.474,199.097 275.098 C 198.999 274.722,198.919 275.029,198.919 275.781 M344.311 275.879 L 343.164 277.148 344.434 276.001 C 345.132 275.370,345.703 274.799,345.703 274.732 C 345.703 274.430,345.381 274.696,344.311 275.879 M167.097 276.064 C 167.799 276.151,168.854 276.149,169.441 276.060 C 170.028 275.971,169.453 275.900,168.164 275.902 C 166.875 275.904,166.395 275.977,167.097 276.064 M256.744 276.062 C 257.337 276.151,258.216 276.149,258.697 276.056 C 259.177 275.964,258.691 275.890,257.617 275.893 C 256.543 275.896,256.150 275.972,256.744 276.062 M314.355 277.239 C 315.269 277.321,316.763 277.321,317.676 277.239 C 318.589 277.157,317.842 277.090,316.016 277.090 C 314.189 277.090,313.442 277.157,314.355 277.239 M276.263 285.156 C 276.263 285.908,276.343 286.216,276.441 285.840 C 276.539 285.464,276.539 284.849,276.441 284.473 C 276.343 284.097,276.263 284.404,276.263 285.156 M164.544 289.063 C 164.544 289.814,164.624 290.122,164.722 289.746 C 164.821 289.370,164.821 288.755,164.722 288.379 C 164.624 288.003,164.544 288.311,164.544 289.063 M332.184 292.969 C 332.184 295.869,332.246 297.056,332.321 295.605 C 332.396 294.155,332.396 291.782,332.321 290.332 C 332.246 288.882,332.184 290.068,332.184 292.969 M283.738 293.750 C 283.738 296.006,283.803 296.929,283.882 295.801 C 283.961 294.673,283.961 292.827,283.882 291.699 C 283.803 290.571,283.738 291.494,283.738 293.750 M250.519 295.117 C 250.521 296.621,250.591 297.188,250.676 296.378 C 250.760 295.568,250.759 294.337,250.673 293.644 C 250.586 292.950,250.517 293.613,250.519 295.117 M304.395 292.847 C 304.771 292.946,305.386 292.946,305.762 292.847 C 306.138 292.749,305.830 292.669,305.078 292.669 C 304.326 292.669,304.019 292.749,304.395 292.847 M176.860 293.245 C 177.346 293.338,178.049 293.335,178.423 293.237 C 178.796 293.139,178.398 293.063,177.539 293.067 C 176.680 293.072,176.374 293.152,176.860 293.245 M267.094 293.245 C 267.580 293.338,268.283 293.335,268.657 293.237 C 269.030 293.139,268.633 293.063,267.773 293.067 C 266.914 293.072,266.608 293.152,267.094 293.245 M130.236 295.373 C 130.069 295.643,130.128 295.718,130.384 295.560 C 130.656 295.392,130.867 295.831,130.965 296.769 L 131.119 298.242 131.184 296.582 C 131.248 294.983,130.817 294.433,130.236 295.373 M64.756 298.724 C 65.675 298.807,67.081 298.805,67.881 298.721 C 68.681 298.638,67.930 298.570,66.211 298.571 C 64.492 298.573,63.838 298.642,64.756 298.724 M146.394 298.721 C 147.096 298.808,148.150 298.806,148.737 298.717 C 149.324 298.627,148.750 298.556,147.461 298.559 C 146.172 298.561,145.692 298.634,146.394 298.721 M189.551 298.717 C 190.142 298.807,191.108 298.807,191.699 298.717 C 192.290 298.628,191.807 298.555,190.625 298.555 C 189.443 298.555,188.960 298.628,189.551 298.717 M278.819 298.724 C 279.738 298.807,281.144 298.805,281.944 298.721 C 282.744 298.638,281.992 298.570,280.273 298.571 C 278.555 298.573,277.900 298.642,278.819 298.724 M348.938 298.725 C 349.965 298.806,351.547 298.805,352.453 298.723 C 353.360 298.641,352.520 298.575,350.586 298.576 C 348.652 298.577,347.911 298.644,348.938 298.725 " stroke="none" fill="#95b0fa" fill-rule="evenodd" data-index="2"></path><path id="path3" d="M258.789 111.129 C 259.662 111.854,262.136 113.192,261.523 112.607 C 261.309 112.402,260.430 111.840,259.570 111.357 C 258.711 110.874,258.359 110.772,258.789 111.129 M264.063 114.161 C 264.063 114.265,264.761 114.812,265.616 115.377 C 267.344 116.521,268.200 117.655,268.975 119.828 C 269.262 120.631,269.505 120.974,269.514 120.590 C 269.538 119.601,268.213 117.144,267.128 116.165 C 266.044 115.188,264.063 113.892,264.063 114.161 M258.008 117.071 C 258.223 117.293,259.277 117.966,260.352 118.567 C 261.426 119.168,262.129 119.478,261.914 119.257 C 261.699 119.035,260.645 118.362,259.570 117.761 C 258.496 117.160,257.793 116.850,258.008 117.071 M263.129 120.293 C 263.367 120.626,263.758 121.250,263.996 121.680 C 264.234 122.109,264.435 122.251,264.441 121.994 C 264.448 121.738,264.058 121.114,263.574 120.608 C 263.091 120.102,262.890 119.961,263.129 120.293 M263.573 123.132 C 263.465 123.412,259.137 126.163,253.954 129.244 C 248.772 132.325,244.531 134.927,244.531 135.024 C 244.531 135.122,244.663 135.128,244.824 135.037 C 255.798 128.837,264.468 123.322,263.991 122.846 C 263.869 122.723,263.680 122.852,263.573 123.132 M269.186 123.580 C 269.095 125.042,267.384 127.387,265.548 128.565 C 264.516 129.227,263.672 129.849,263.672 129.947 C 263.672 130.137,263.873 130.030,266.092 128.650 C 267.712 127.641,269.688 124.605,269.412 123.546 C 269.246 122.908,269.228 122.911,269.186 123.580 M257.422 133.436 C 254.307 135.276,251.582 136.976,251.367 137.213 C 251.152 137.450,251.416 137.378,251.953 137.054 C 252.490 136.730,255.259 135.099,258.105 133.429 C 262.517 130.841,263.716 130.051,263.184 130.084 C 263.130 130.088,260.537 131.596,257.422 133.436 M240.524 137.255 C 238.647 138.409,238.123 138.954,239.648 138.165 C 240.873 137.532,242.525 136.353,242.188 136.353 C 242.080 136.353,241.331 136.759,240.524 137.255 M251.172 138.027 C 251.172 138.152,254.116 140.001,257.715 142.137 C 268.104 148.303,269.141 149.335,269.141 153.516 C 269.141 157.687,268.563 158.267,258.496 164.215 C 254.253 166.721,250.781 168.863,250.781 168.973 C 250.781 169.207,252.254 168.363,260.700 163.295 C 267.816 159.025,269.152 157.715,269.439 154.725 C 269.919 149.738,268.669 148.233,259.590 142.865 C 255.927 140.699,252.534 138.674,252.051 138.364 C 251.567 138.054,251.172 137.903,251.172 138.027 M231.349 140.430 C 231.353 141.289,231.433 141.595,231.526 141.109 C 231.620 140.623,231.616 139.920,231.518 139.546 C 231.421 139.173,231.344 139.570,231.349 140.430 M242.773 142.239 C 241.699 142.904,240.645 143.629,240.430 143.850 C 239.997 144.295,242.689 142.764,244.174 141.720 C 245.733 140.623,244.862 140.947,242.773 142.239 M246.289 141.585 C 246.719 141.935,250.410 144.172,254.492 146.555 C 258.574 148.939,262.397 151.337,262.988 151.885 C 263.579 152.432,264.063 152.684,264.063 152.443 C 264.063 151.846,262.977 151.128,255.078 146.504 C 245.934 141.150,245.361 140.829,246.289 141.585 M226.293 143.945 C 226.295 145.234,226.368 145.715,226.455 145.013 C 226.542 144.310,226.540 143.256,226.451 142.669 C 226.362 142.082,226.291 142.656,226.293 143.945 M263.631 154.243 C 263.220 154.958,260.320 156.906,254.849 160.141 C 241.464 168.056,231.250 174.267,231.250 174.490 C 231.250 174.605,231.646 174.443,232.129 174.130 C 232.612 173.817,238.105 170.531,244.336 166.827 C 250.566 163.124,257.485 159.009,259.710 157.684 C 262.299 156.142,263.886 154.937,264.116 154.340 C 264.621 153.028,264.358 152.975,263.631 154.243 M233.545 159.717 C 234.687 160.859,234.594 162.325,233.301 163.575 C 232.280 164.561,232.275 164.582,233.203 164.000 C 235.090 162.816,235.121 159.683,233.252 159.065 C 232.957 158.967,233.088 159.260,233.545 159.717 M226.465 161.352 C 225.015 162.222,223.828 163.032,223.828 163.153 C 223.828 163.273,224.224 163.116,224.707 162.805 C 225.190 162.493,226.421 161.753,227.441 161.160 C 229.013 160.247,229.630 159.758,229.199 159.768 C 229.146 159.769,227.915 160.482,226.465 161.352 M220.992 164.599 C 219.116 165.753,218.592 166.298,220.117 165.509 C 221.342 164.876,222.993 163.697,222.656 163.696 C 222.549 163.696,221.800 164.103,220.992 164.599 M230.762 165.067 C 229.301 165.859,229.390 166.189,230.859 165.430 C 231.504 165.096,232.031 164.740,232.031 164.638 C 232.031 164.387,231.989 164.401,230.762 165.067 M251.777 169.864 C 251.981 170.047,255.049 171.921,258.594 174.029 C 268.125 179.698,269.141 180.744,269.141 184.902 C 269.141 189.285,269.089 189.329,251.172 200.216 C 202.474 229.807,203.280 229.341,200.195 229.699 L 197.852 229.971 199.805 230.016 C 202.426 230.076,202.689 229.941,219.141 220.050 C 271.694 188.455,269.531 189.956,269.531 185.064 C 269.531 180.557,268.603 179.573,258.760 173.654 C 252.522 169.902,250.743 168.937,251.777 169.864 M241.003 174.671 C 238.539 176.178,234.150 178.836,231.250 180.577 C 223.945 184.963,224.609 184.058,224.609 189.617 C 224.609 196.195,224.629 196.166,217.259 200.593 C 211.577 204.006,208.662 205.985,212.695 203.691 C 224.829 196.790,224.745 196.884,225.000 189.954 L 225.195 184.650 233.018 179.923 C 237.321 177.323,241.870 174.560,243.128 173.784 L 245.416 172.372 250.344 175.298 C 267.406 185.429,267.064 184.296,255.222 191.443 C 250.738 194.149,237.402 202.221,225.586 209.380 C 213.770 216.539,203.135 222.918,201.953 223.556 C 200.771 224.193,200.192 224.622,200.666 224.508 C 201.401 224.331,220.451 212.957,254.688 192.251 C 267.969 184.219,268.539 185.590,246.472 172.517 C 245.521 171.954,245.309 172.038,241.003 174.671 M226.758 177.003 C 224.609 178.306,222.676 179.563,222.461 179.797 C 222.246 180.030,222.510 179.957,223.047 179.634 C 223.584 179.311,225.562 178.125,227.441 176.997 C 229.321 175.870,230.859 174.871,230.859 174.778 C 230.859 174.514,230.879 174.503,226.758 177.003 M195.403 182.031 C 195.403 182.783,195.484 183.091,195.582 182.715 C 195.680 182.339,195.680 181.724,195.582 181.348 C 195.484 180.972,195.403 181.279,195.403 182.031 M204.778 182.031 C 204.778 182.783,204.859 183.091,204.957 182.715 C 205.055 182.339,205.055 181.724,204.957 181.348 C 204.859 180.972,204.778 181.279,204.778 182.031 M219.384 183.023 C 219.250 183.372,219.141 185.798,219.141 188.415 L 219.141 193.172 216.016 195.045 C 214.297 196.075,212.891 197.016,212.891 197.137 C 212.891 197.257,213.286 197.104,213.770 196.796 C 214.253 196.489,215.738 195.583,217.069 194.783 L 219.489 193.328 219.608 187.973 C 219.738 182.117,219.737 182.103,219.384 183.023 M192.969 188.867 C 193.698 189.619,194.382 190.234,194.489 190.234 C 194.597 190.234,194.088 189.619,193.359 188.867 C 192.631 188.115,191.946 187.500,191.839 187.500 C 191.732 187.500,192.240 188.115,192.969 188.867 M207.202 188.770 L 206.055 190.039 207.324 188.892 C 208.022 188.261,208.594 187.689,208.594 187.622 C 208.594 187.320,208.271 187.586,207.202 188.770 M208.883 199.365 C 207.007 200.518,206.483 201.063,208.008 200.275 C 209.232 199.642,210.884 198.463,210.547 198.462 C 210.439 198.462,209.691 198.868,208.883 199.365 M202.441 203.166 C 201.313 203.823,200.391 204.451,200.391 204.562 C 200.391 204.778,203.865 202.847,204.473 202.292 C 205.135 201.688,204.533 201.946,202.441 203.166 M206.641 206.917 C 203.404 208.859,202.581 209.179,200.196 209.422 L 197.461 209.701 200.195 209.622 C 202.632 209.552,210.547 205.892,210.547 204.835 C 210.547 204.581,210.436 204.640,206.641 206.917 M197.829 224.002 C 198.246 224.336,198.861 224.595,199.196 224.579 C 199.722 224.552,199.725 224.518,199.219 224.330 C 198.896 224.211,198.281 223.951,197.852 223.754 C 197.083 223.400,197.082 223.404,197.829 224.002 M194.531 228.339 C 194.531 228.626,196.923 229.737,197.274 229.614 C 197.464 229.547,196.925 229.198,196.076 228.838 C 195.226 228.478,194.531 228.253,194.531 228.339 M325.000 276.089 L 325.000 298.468 328.418 298.355 L 331.836 298.242 331.944 293.139 L 332.053 288.035 333.986 286.131 C 335.050 285.084,335.976 284.304,336.044 284.399 C 347.289 299.855,345.836 298.489,350.891 298.354 L 355.056 298.242 352.057 294.141 C 350.408 291.885,347.329 287.682,345.216 284.801 C 343.102 281.920,341.424 279.331,341.487 279.048 C 341.550 278.765,344.402 275.717,347.825 272.275 L 354.048 266.016 349.360 266.016 L 344.673 266.016 341.378 269.434 C 339.566 271.313,336.695 274.328,334.998 276.132 L 331.912 279.413 332.124 267.119 C 332.375 252.471,332.643 253.416,328.285 253.584 L 325.000 253.711 325.000 276.089 M331.641 266.802 C 331.850 280.414,331.900 280.686,333.722 278.216 C 334.240 277.514,336.961 274.587,339.769 271.713 L 344.873 266.486 348.902 266.438 L 352.930 266.390 348.824 270.597 C 346.567 272.911,343.790 275.785,342.654 276.984 L 340.588 279.164 347.064 288.037 C 350.656 292.957,353.421 297.103,353.272 297.343 C 353.116 297.596,353.181 297.668,353.428 297.515 C 353.661 297.371,353.963 297.432,354.098 297.650 C 354.384 298.112,347.315 298.206,346.659 297.748 C 346.433 297.590,343.996 294.429,341.244 290.723 C 335.557 283.065,336.080 283.398,333.554 285.818 L 331.641 287.652 331.641 292.850 L 331.641 298.047 328.516 298.047 L 325.391 298.047 325.391 276.191 L 325.391 254.334 327.832 254.192 C 329.175 254.114,330.537 254.064,330.859 254.081 C 331.363 254.107,331.473 255.888,331.641 266.802 M233.984 261.705 L 233.984 266.406 231.445 266.406 L 228.906 266.406 228.906 269.336 L 228.906 272.266 231.415 272.266 L 233.924 272.266 234.052 281.963 L 234.180 291.660 235.358 293.961 C 237.408 297.968,242.138 299.777,247.949 298.777 L 250.391 298.357 250.391 295.175 L 250.392 291.992 248.171 292.130 C 242.211 292.500,241.673 291.590,241.388 280.664 L 241.174 272.461 241.117 280.273 C 241.037 291.231,241.716 292.578,247.323 292.578 L 250.000 292.578 250.000 295.264 L 250.000 297.949 248.779 298.193 C 244.227 299.104,238.982 297.988,236.835 295.652 C 234.829 293.469,234.615 292.264,234.390 281.836 L 234.180 272.070 231.738 271.954 L 229.297 271.838 229.297 269.336 L 229.297 266.834 231.738 266.718 L 234.180 266.602 234.290 261.997 L 234.400 257.392 237.805 257.505 L 241.211 257.617 241.434 261.914 L 241.656 266.211 241.629 261.719 L 241.602 257.227 237.793 257.115 L 233.984 257.003 233.984 261.705 M206.586 266.237 C 202.570 267.474,199.243 271.777,199.227 275.756 C 199.205 281.285,202.071 283.432,212.075 285.378 C 217.367 286.408,218.522 286.931,218.910 288.473 C 220.233 293.746,208.081 295.367,205.914 290.206 L 205.273 288.680 201.617 288.676 L 197.960 288.672 198.228 290.137 C 200.548 302.823,226.172 301.659,226.172 288.867 C 226.172 283.611,223.124 281.280,213.667 279.302 C 208.942 278.314,207.160 277.584,206.815 276.495 C 206.680 276.070,206.483 275.808,206.378 275.914 C 205.229 277.063,207.757 278.368,213.750 279.720 C 223.093 281.826,225.796 283.902,225.773 288.952 C 225.717 301.070,201.130 302.320,198.639 290.332 L 198.375 289.063 201.629 289.064 L 204.883 289.065 205.664 290.511 C 207.942 294.728,217.282 294.863,219.019 290.703 C 220.296 287.647,218.705 286.248,212.695 285.144 C 202.662 283.301,199.596 281.086,199.618 275.696 C 199.644 269.373,204.760 265.785,213.332 266.078 C 215.671 266.158,217.276 266.101,216.898 265.952 C 215.653 265.459,208.467 265.658,206.586 266.237 M264.189 266.168 C 260.126 267.487,256.192 271.689,256.286 274.609 C 256.297 274.932,256.546 274.538,256.841 273.735 C 258.827 268.329,262.506 266.211,269.914 266.211 C 281.377 266.211,283.203 269.173,283.203 287.767 L 283.203 298.047 280.281 298.047 C 277.218 298.047,276.376 297.380,277.089 295.521 C 277.210 295.205,277.166 294.858,276.989 294.749 C 276.813 294.640,276.689 295.382,276.713 296.397 L 276.758 298.242 280.201 298.355 L 283.645 298.469 283.495 286.441 C 283.306 271.294,282.816 269.690,277.551 266.996 C 274.831 265.605,267.351 265.141,264.189 266.168 M299.693 266.339 C 283.799 272.021,285.457 296.080,301.937 298.906 C 309.963 300.282,316.736 296.432,319.357 289.003 L 319.887 287.500 316.241 287.500 L 312.595 287.500 312.109 288.674 C 310.462 292.649,304.820 294.104,300.613 291.638 C 295.256 288.498,294.395 279.022,299.045 274.372 C 302.957 270.460,310.239 271.266,312.125 275.820 L 312.595 276.953 316.241 276.953 L 319.887 276.953 319.308 275.293 C 316.707 267.841,307.389 263.587,299.693 266.339 M311.047 267.206 C 314.700 268.630,317.804 271.969,318.927 275.684 C 319.188 276.545,319.129 276.563,316.032 276.563 C 313.116 276.563,312.845 276.494,312.528 275.684 C 309.995 269.194,299.606 270.378,296.453 277.516 C 291.594 288.517,305.529 299.593,311.914 289.805 L 313.086 288.009 316.113 287.935 C 317.778 287.894,319.141 287.948,319.141 288.056 C 319.141 296.296,304.604 301.694,296.470 296.475 C 280.068 285.950,292.922 260.139,311.047 267.206 M219.169 267.179 C 221.789 268.564,224.609 272.410,224.609 274.597 C 224.609 275.327,224.365 275.391,221.563 275.391 L 218.516 275.391 218.029 274.044 C 216.745 270.492,210.441 269.757,207.129 272.773 C 206.646 273.213,206.261 273.851,206.275 274.189 C 206.291 274.591,206.419 274.507,206.644 273.949 C 208.252 269.956,217.969 270.864,217.969 275.006 C 217.969 275.725,218.239 275.781,221.687 275.781 L 225.406 275.781 225.146 274.707 C 224.221 270.884,220.401 266.333,218.195 266.424 C 217.963 266.433,218.402 266.773,219.169 267.179 M245.589 266.697 L 249.577 266.824 249.710 269.838 L 249.843 272.852 249.921 269.629 L 250.000 266.406 245.801 266.489 L 241.602 266.571 245.589 266.697 M186.751 266.915 C 186.841 266.980,187.441 267.342,188.086 267.720 L 189.258 268.406 188.336 267.601 C 187.828 267.159,187.228 266.797,187.001 266.797 C 186.774 266.797,186.662 266.850,186.751 266.915 M190.234 269.531 C 190.693 270.176,191.157 270.703,191.264 270.703 C 191.372 270.703,191.084 270.176,190.625 269.531 C 190.166 268.887,189.703 268.359,189.595 268.359 C 189.488 268.359,189.775 268.887,190.234 269.531 M266.662 271.664 C 264.988 272.260,263.413 273.578,263.066 274.671 C 262.868 275.297,262.369 275.397,259.251 275.436 C 255.130 275.488,255.427 275.667,259.997 275.885 L 263.158 276.036 263.513 274.836 C 264.644 271.009,273.700 270.572,275.603 274.252 C 277.336 277.602,276.299 278.481,269.822 279.149 C 258.651 280.303,255.078 282.724,255.078 289.141 C 255.078 298.417,267.245 302.483,275.488 295.962 C 276.973 294.788,276.056 294.990,274.121 296.264 C 267.598 300.557,258.037 298.547,256.014 292.456 C 253.464 284.779,257.656 280.778,269.409 279.672 C 276.051 279.047,276.563 278.792,276.563 276.105 C 276.563 272.407,271.255 270.026,266.662 271.664 M242.044 272.350 C 242.335 272.820,249.219 272.727,249.219 272.253 C 249.219 271.998,247.869 271.886,245.537 271.947 C 243.512 272.000,241.940 272.181,242.044 272.350 M269.531 283.572 C 263.221 284.255,260.562 287.281,262.678 291.373 C 265.856 297.519,277.480 292.259,276.884 284.944 L 276.758 283.398 274.414 283.348 C 273.125 283.321,270.928 283.421,269.531 283.572 M179.004 283.863 C 179.380 283.961,179.995 283.961,180.371 283.863 C 180.747 283.765,180.439 283.684,179.688 283.684 C 178.936 283.684,178.628 283.765,179.004 283.863 M186.440 285.742 C 186.443 286.816,186.519 287.209,186.608 286.616 C 186.698 286.022,186.696 285.143,186.603 284.663 C 186.510 284.182,186.437 284.668,186.440 285.742 M276.560 285.254 C 276.547 293.035,263.826 297.085,262.626 289.690 C 261.979 285.698,264.708 284.075,272.168 284.018 L 276.563 283.984 276.560 285.254 M193.054 292.480 L 192.969 298.047 189.867 298.047 L 186.766 298.047 186.613 296.582 L 186.459 295.117 186.394 296.777 L 186.328 298.438 189.661 298.438 C 193.671 298.438,193.417 298.879,193.261 292.168 L 193.139 286.914 193.054 292.480 M176.860 293.636 C 177.346 293.729,178.049 293.726,178.423 293.628 C 178.796 293.530,178.398 293.454,177.539 293.458 C 176.680 293.462,176.374 293.542,176.860 293.636 " stroke="none" fill="#3634fa" fill-rule="evenodd" data-index="3"></path></g></svg>